<svg width="22" height="22" viewBox="0 0 22 22" fill="none" xmlns="http://www.w3.org/2000/svg">
<g clip-path="url(#clip0_0_456)">
<path d="M11.5656 21.1043C11.2016 21.2448 10.7983 21.2448 10.4342 21.1043C7.59101 19.9895 5.14971 18.0438 3.4286 15.521C1.70751 12.9982 0.786487 10.0154 0.785645 6.96143V2.35715C0.785645 1.94038 0.951206 1.54068 1.2459 1.24598C1.54061 0.951282 1.9403 0.785721 2.35707 0.785721H19.6428C20.0595 0.785721 20.4593 0.951282 20.7539 1.24598C21.0486 1.54068 21.2142 1.94038 21.2142 2.35715V6.94572C21.2166 10.0024 20.297 12.9886 18.5756 15.5145C16.8544 18.0405 14.4113 19.9884 11.5656 21.1043Z" stroke="#333333" stroke-linecap="round" stroke-linejoin="round"/>
<path d="M4.45728 16.8621C5.86561 14.7492 8.27019 13.3571 10.9999 13.3571C13.7296 13.3571 16.1342 14.7492 17.5425 16.8621" stroke="#333333" stroke-linecap="round" stroke-linejoin="round"/>
<path d="M10.9998 11C12.9525 11 14.5355 9.41701 14.5355 7.46429C14.5355 5.51157 12.9525 3.92857 10.9998 3.92857C9.04711 3.92857 7.46411 5.51157 7.46411 7.46429C7.46411 9.41701 9.04711 11 10.9998 11Z" stroke="#333333" stroke-linecap="round" stroke-linejoin="round"/>
</g>
<defs>
<clipPath id="clip0_0_456">
<rect width="22" height="22" fill="white"/>
</clipPath>
</defs>
</svg>
