<svg width="22" height="22" viewBox="0 0 22 22" fill="none" xmlns="http://www.w3.org/2000/svg">
<path d="M21.2142 7.85717C21.2142 7.44039 21.0486 7.0407 20.7539 6.746C20.4593 6.45131 20.0595 6.28574 19.6428 6.28574H16.4999L14.1428 3.14288H7.85707L5.49993 6.28574H2.35707C1.9403 6.28574 1.54061 6.45131 1.2459 6.746C0.951206 7.0407 0.785645 7.44039 0.785645 7.85717V17.2857C0.785645 17.7025 0.951206 18.1023 1.2459 18.3969C1.54061 18.6915 1.9403 18.8572 2.35707 18.8572H19.6428C20.0595 18.8572 20.4593 18.6915 20.7539 18.3969C21.0486 18.1023 21.2142 17.7025 21.2142 17.2857V7.85717Z" stroke="#F58220" stroke-linecap="round" stroke-linejoin="round"/>
<path d="M11.0001 15.3214C12.9528 15.3214 14.5358 13.7384 14.5358 11.7857C14.5358 9.83299 12.9528 8.25 11.0001 8.25C9.04735 8.25 7.46436 9.83299 7.46436 11.7857C7.46436 13.7384 9.04735 15.3214 11.0001 15.3214Z" stroke="#F58220" stroke-linecap="round" stroke-linejoin="round"/>
</svg>
