<svg width="22" height="22" viewBox="0 0 22 22" fill="none" xmlns="http://www.w3.org/2000/svg">
<g clip-path="url(#clip0_410_6336)">
<path d="M10.9999 21.2142C16.6412 21.2142 21.2142 16.6412 21.2142 10.9999C21.2142 5.35874 16.6412 0.785645 10.9999 0.785645C5.35874 0.785645 0.785645 5.35874 0.785645 10.9999C0.785645 16.6412 5.35874 21.2142 10.9999 21.2142Z" stroke="white" stroke-linecap="round" stroke-linejoin="round"/>
<path d="M13.6741 8.20663C13.5821 7.9464 13.4402 7.70974 13.2598 7.50822C12.8762 7.07957 12.3187 6.80981 11.6981 6.80981H10.0763C9.04341 6.80981 8.20605 7.64717 8.20605 8.68008C8.20605 9.559 8.81805 10.3193 9.67666 10.5072L12.1459 11.0473C13.1077 11.2577 13.7933 12.1101 13.7933 13.0948C13.7933 14.2519 12.8553 15.1908 11.6981 15.1908H10.3013C9.38901 15.1908 8.61291 14.6077 8.32528 13.7939" stroke="white" stroke-linecap="round" stroke-linejoin="round"/>
<path d="M11 6.80934V4.71411" stroke="white" stroke-linecap="round" stroke-linejoin="round"/>
<path d="M11 17.2854V15.1902" stroke="white" stroke-linecap="round" stroke-linejoin="round"/>
</g>
<defs>
<clipPath id="clip0_410_6336">
<rect width="22" height="22" fill="white"/>
</clipPath>
</defs>
</svg>
