<svg width="24" height="24" viewBox="0 0 24 24" fill="none" xmlns="http://www.w3.org/2000/svg">
<g clip-path="url(#clip0_0_683)">
<path d="M23.1429 13.7143V18C23.1429 18.2273 23.0525 18.4454 22.8919 18.6062C22.7311 18.7668 22.5131 18.8571 22.2857 18.8571H1.71432C1.48699 18.8571 1.26897 18.7668 1.10823 18.6062C0.947483 18.4454 0.857178 18.2273 0.857178 18V4.28571C0.857178 4.05838 0.947483 3.84035 1.10823 3.67962C1.26897 3.51887 1.48699 3.42857 1.71432 3.42857H5.14289" stroke="#1A75E5" stroke-linecap="round" stroke-linejoin="round"/>
<path d="M10.2858 18.8571L8.57153 23.1429" stroke="#1A75E5" stroke-linecap="round" stroke-linejoin="round"/>
<path d="M13.7144 18.8571L15.4286 23.1429" stroke="#1A75E5" stroke-linecap="round" stroke-linejoin="round"/>
<path d="M6.85718 23.1429H17.1429" stroke="#1A75E5" stroke-linecap="round" stroke-linejoin="round"/>
<path d="M9.42871 9.42857H14.5716V12.8571L19.7144 9.42857H23.143V0.85714H9.42871V9.42857Z" stroke="#1A75E5" stroke-linecap="round" stroke-linejoin="round"/>
</g>
<defs>
<clipPath id="clip0_0_683">
<rect width="24" height="24" fill="white"/>
</clipPath>
</defs>
</svg>
