<svg width="22" height="22" viewBox="0 0 22 22" fill="none" xmlns="http://www.w3.org/2000/svg">
<path d="M8.21858 3.53572L8.8943 1.79144C9.00826 1.49611 9.20876 1.24208 9.46952 1.06263C9.7303 0.883171 10.0392 0.786656 10.3557 0.785721H11.6443C11.9608 0.786656 12.2697 0.883171 12.5305 1.06263C12.7913 1.24208 12.9918 1.49611 13.1057 1.79144L13.7814 3.53572L16.0757 4.85572L17.9299 4.57286C18.2387 4.53095 18.553 4.58177 18.8329 4.71888C19.1126 4.85599 19.3453 5.07318 19.5014 5.34286L20.1299 6.44286C20.291 6.71684 20.3653 7.03322 20.3429 7.35024C20.3204 7.66726 20.2024 7.97002 20.0042 8.21858L18.8571 9.68001V12.32L20.0357 13.7814C20.2338 14.03 20.3518 14.3328 20.3743 14.6498C20.3968 14.9668 20.3224 15.2832 20.1614 15.5571L19.5328 16.6571C19.3768 16.9268 19.144 17.144 18.8643 17.2812C18.5844 17.4182 18.2702 17.4691 17.9614 17.4271L16.1071 17.1443L13.8129 18.4643L13.1372 20.2086C13.0232 20.5038 12.8227 20.7579 12.5619 20.9374C12.3012 21.1169 11.9923 21.2133 11.6757 21.2143H10.3557C10.0392 21.2133 9.7303 21.1169 9.46952 20.9374C9.20876 20.7579 9.00826 20.5038 8.8943 20.2086L8.21858 18.4643L5.9243 17.1443L4.07001 17.4271C3.76126 17.4691 3.447 17.4182 3.1672 17.2812C2.8874 17.144 2.65467 16.9268 2.49858 16.6571L1.87001 15.5571C1.70894 15.2832 1.63474 14.9668 1.65718 14.6498C1.67962 14.3328 1.79766 14.03 1.99573 13.7814L3.14287 12.32V9.68001L1.9643 8.21858C1.76624 7.97002 1.64819 7.66726 1.62575 7.35024C1.60331 7.03322 1.67751 6.71684 1.83858 6.44286L2.46716 5.34286C2.62325 5.07318 2.85597 4.85599 3.13577 4.71888C3.41558 4.58177 3.72983 4.53095 4.03858 4.57286L5.89287 4.85572L8.21858 3.53572ZM7.85716 11C7.85716 11.6216 8.04148 12.2292 8.38682 12.7461C8.73217 13.2629 9.22301 13.6657 9.79729 13.9036C10.3716 14.1415 11.0035 14.2037 11.6132 14.0825C12.2228 13.9612 12.7828 13.6619 13.2224 13.2223C13.6619 12.7828 13.9612 12.2228 14.0825 11.6131C14.2037 11.0035 14.1415 10.3716 13.9036 9.79728C13.6658 9.223 13.2629 8.73215 12.7461 8.38681C12.2292 8.04148 11.6216 7.85715 11 7.85715C10.1665 7.85715 9.36708 8.18827 8.77768 8.77768C8.18829 9.36707 7.85716 10.1665 7.85716 11Z" stroke="#333333" stroke-linecap="round" stroke-linejoin="round"/>
</svg>
