<svg width="18" height="34" viewBox="0 0 18 34" fill="none" xmlns="http://www.w3.org/2000/svg">
<path fill-rule="evenodd" clip-rule="evenodd" d="M14.2929 0C13.9206 2.3069 12.1778 5.99005 10.5646 9.40245C9.92726 10.7449 9.31246 12.0478 8.81611 13.1871C8.12799 14.7721 7.42295 16.2837 6.75175 17.6994C3.86953 23.8643 1.698 28.5401 4.0613 32.071C4.08359 32.1043 4.09907 32.1417 4.10688 32.181C4.11469 32.2203 4.11466 32.2608 4.1068 32.3001C4.09894 32.3394 4.08341 32.3767 4.06108 32.41C4.03875 32.4433 4.01008 32.4718 3.9767 32.494C3.93223 32.5217 3.88212 32.5391 3.83005 32.5448C2.6984 32.5594 1.57297 32.7148 0.479685 33.0073C0.00589595 33.1934 -0.157674 33.4924 0.175106 34H0.338676C0.665816 34 1.11704 33.9323 1.6698 33.8646C2.22255 33.7969 2.85991 33.7067 3.54803 33.6052C6.93224 33.1032 11.6645 32.2797 13.9206 31.851C14.343 31.8116 14.7505 31.6745 15.1107 31.4506C15.1107 31.4506 15.0769 31.4054 15.0149 31.366C14.5605 31.1193 14.0585 30.9731 13.5427 30.9373C12.5032 30.8715 11.4861 30.6053 10.5477 30.1533C10.1572 29.951 9.83 29.645 9.60212 29.2689C9.37425 28.8927 9.2545 28.461 9.25606 28.0212C9.14325 23.9827 12.2962 18.224 14.7667 13.7117C15.4661 12.4313 16.1147 11.2525 16.6111 10.2372C18.5626 6.28898 16.6111 3.41805 14.7272 0.64864C14.5805 0.434306 14.4395 0.219973 14.2929 0.0112807V0Z" fill="white"/>
</svg>
