<svg width="22" height="22" viewBox="0 0 22 22" fill="none" xmlns="http://www.w3.org/2000/svg">
<g clip-path="url(#clip0_410_6326)">
<path d="M11.5656 21.1042C11.2016 21.2447 10.7983 21.2447 10.4342 21.1042C7.59101 19.9894 5.14971 18.0437 3.4286 15.5209C1.70751 12.9982 0.786487 10.0153 0.785645 6.96136V2.35707C0.785645 1.9403 0.951206 1.54061 1.2459 1.2459C1.54061 0.951206 1.9403 0.785645 2.35707 0.785645H19.6428C20.0595 0.785645 20.4593 0.951206 20.7539 1.2459C21.0486 1.54061 21.2142 1.9403 21.2142 2.35707V6.94564C21.2166 10.0023 20.297 12.9886 18.5756 15.5144C16.8544 18.0404 14.4113 19.9883 11.5656 21.1042Z" stroke="white" stroke-linecap="round" stroke-linejoin="round"/>
<path d="M4.45752 16.8621C5.86585 14.7492 8.27043 13.3572 11.0002 13.3572C13.7299 13.3572 16.1344 14.7492 17.5427 16.8621" stroke="white" stroke-linecap="round" stroke-linejoin="round"/>
<path d="M11.0001 10.9999C12.9528 10.9999 14.5358 9.4169 14.5358 7.46418C14.5358 5.51146 12.9528 3.92847 11.0001 3.92847C9.04735 3.92847 7.46436 5.51146 7.46436 7.46418C7.46436 9.4169 9.04735 10.9999 11.0001 10.9999Z" stroke="white" stroke-linecap="round" stroke-linejoin="round"/>
</g>
<defs>
<clipPath id="clip0_410_6326">
<rect width="22" height="22" fill="white"/>
</clipPath>
</defs>
</svg>
