<svg width="22" height="22" viewBox="0 0 22 22" fill="none" xmlns="http://www.w3.org/2000/svg">
<g clip-path="url(#clip0_0_920)">
<path d="M10.9999 12.5714C13.1695 12.5714 14.9284 10.8125 14.9284 8.64284C14.9284 6.47315 13.1695 4.71426 10.9999 4.71426C8.83017 4.71426 7.07129 6.47315 7.07129 8.64284C7.07129 10.8125 8.83017 12.5714 10.9999 12.5714Z" stroke="white" stroke-linecap="round" stroke-linejoin="round"/>
<path d="M4.28979 18.7C4.99103 17.5489 5.97658 16.5976 7.1517 15.9376C8.32681 15.2774 9.65197 14.9307 10.9998 14.9307C12.3476 14.9307 13.6728 15.2774 14.8479 15.9376C16.0231 16.5976 17.0085 17.5489 17.7098 18.7" stroke="white" stroke-linecap="round" stroke-linejoin="round"/>
<path d="M10.9999 21.2143C16.6412 21.2143 21.2142 16.6413 21.2142 11C21.2142 5.3588 16.6412 0.785706 10.9999 0.785706C5.35874 0.785706 0.785645 5.3588 0.785645 11C0.785645 16.6413 5.35874 21.2143 10.9999 21.2143Z" stroke="white" stroke-linecap="round" stroke-linejoin="round"/>
</g>
<defs>
<clipPath id="clip0_0_920">
<rect width="22" height="22" fill="white"/>
</clipPath>
</defs>
</svg>
