<svg width="22" height="22" viewBox="0 0 22 22" fill="none" xmlns="http://www.w3.org/2000/svg">
<g clip-path="url(#clip0_0_436)">
<path d="M21.2142 10.9057C21.2158 10.6876 21.1718 10.4716 21.0852 10.2714C20.9986 10.0712 20.8713 9.89117 20.7114 9.74286L11 0.785721L1.28854 9.74286C1.12861 9.89117 1.0013 10.0712 0.914726 10.2714C0.828151 10.4716 0.784205 10.6876 0.78568 10.9057V19.6429C0.78568 20.0596 0.951241 20.4594 1.24594 20.754C1.54064 21.0487 1.94035 21.2143 2.3571 21.2143H19.6428C20.0595 21.2143 20.4593 21.0487 20.7539 20.754C21.0487 20.4594 21.2142 20.0596 21.2142 19.6429V10.9057Z" stroke="#1A75E5" stroke-linecap="round" stroke-linejoin="round"/>
<path d="M11 21.2143V14.9286" stroke="#1A75E5" stroke-linecap="round" stroke-linejoin="round"/>
</g>
<defs>
<clipPath id="clip0_0_436">
<rect width="22" height="22" fill="white"/>
</clipPath>
</defs>
</svg>
