<svg width="22" height="22" viewBox="0 0 22 22" fill="none" xmlns="http://www.w3.org/2000/svg">
<g clip-path="url(#clip0_0_836)">
<path d="M3.9285 0.785732H2.35707C1.9403 0.785732 1.54061 0.95136 1.2459 1.246C0.951206 1.54065 0.785645 1.94042 0.785645 2.35716L0.785645 3.92859" stroke="#1A75E5" stroke-linecap="round" stroke-linejoin="round"/>
<path d="M0.785645 8.64289L0.785645 13.3572" stroke="#1A75E5" stroke-linecap="round" stroke-linejoin="round"/>
<path d="M3.9285 21.2143H2.35707C1.9403 21.2143 1.54061 21.0487 1.2459 20.754C0.951206 20.4593 0.785645 20.0596 0.785645 19.6429L0.785645 18.0714" stroke="#1A75E5" stroke-linecap="round" stroke-linejoin="round"/>
<path d="M14.9287 21.2143H19.643C20.0597 21.2143 20.4595 21.0487 20.7542 20.754C21.0488 20.4593 21.2144 20.0596 21.2144 19.6429V2.35715C21.2144 1.94041 21.0488 1.54064 20.7542 1.246C20.4595 0.951354 20.0597 0.785725 19.643 0.785725H14.9287" stroke="#1A75E5" stroke-linecap="round" stroke-linejoin="round"/>
<path d="M8.64258 21.2143H10.9997L10.9997 0.785725H8.64258" stroke="#1A75E5" stroke-linecap="round" stroke-linejoin="round"/>
</g>
<defs>
<clipPath id="clip0_0_836">
<rect width="22" height="22" fill="white" transform="matrix(0 -1 1 0 0 22)"/>
</clipPath>
</defs>
</svg>
