<svg width="22" height="22" viewBox="0 0 22 22" fill="none" xmlns="http://www.w3.org/2000/svg">
<path d="M16.7174 2.41992H5.28248C5.01885 2.42717 4.76064 2.49637 4.52869 2.62194C4.29675 2.74752 4.09762 2.92594 3.94736 3.14278L1.08864 7.10278C0.876365 7.40288 0.770353 7.76531 0.787426 8.13255C0.8045 8.49981 0.943681 8.85082 1.18288 9.12992L9.75905 19.0141C9.90589 19.2035 10.094 19.3567 10.3091 19.462C10.5241 19.5674 10.7605 19.6221 10.9999 19.6221C11.2394 19.6221 11.4757 19.5674 11.6908 19.462C11.9058 19.3567 12.094 19.2035 12.2408 19.0141L20.817 9.12992C21.0561 8.85082 21.1954 8.49981 21.2125 8.13255C21.2295 7.76531 21.1235 7.40288 20.9112 7.10278L18.0525 3.14278C17.9023 2.92594 17.7032 2.74752 17.4712 2.62194C17.2393 2.49637 16.9809 2.42717 16.7174 2.41992Z" stroke="#1A75E5" stroke-linecap="round" stroke-linejoin="round"/>
<path d="M10.1829 2.4043L6.34863 8.3443L11.0001 19.58" stroke="#1A75E5" stroke-linecap="round" stroke-linejoin="round"/>
<path d="M11.8643 2.4043L15.6829 8.3443L11 19.58" stroke="#1A75E5" stroke-linecap="round" stroke-linejoin="round"/>
<path d="M0.817139 8.34424H21.1828" stroke="#1A75E5" stroke-linecap="round" stroke-linejoin="round"/>
</svg>
