<svg width="24" height="24" viewBox="0 0 24 24" fill="none" xmlns="http://www.w3.org/2000/svg">
<g clip-path="url(#clip0_0_1149)">
<path d="M14.2542 1.76786C13.7808 1.76786 13.397 2.15162 13.397 2.625V5.03577H10.9863C10.5129 5.03577 10.1292 5.41951 10.1292 5.89291V8.67862C10.1292 9.15201 10.5129 9.53577 10.9863 9.53577H13.397V11.9464C13.397 12.4198 13.7808 12.8036 14.2542 12.8036H17.0399C17.5133 12.8036 17.8969 12.4198 17.8969 11.9464V9.53577H20.3077C20.7811 9.53577 21.1649 9.15201 21.1649 8.67862V5.89291C21.1649 5.41951 20.7811 5.03577 20.3077 5.03577H17.8969V2.625C17.8969 2.15162 17.5133 1.76786 17.0399 1.76786H14.2542Z" stroke="#1A75E5" stroke-linecap="round" stroke-linejoin="round"/>
<path d="M0.999512 18.4821L5.18877 21.9732C5.80493 22.4866 6.58161 22.7679 7.38369 22.7679H18.4281C19.217 22.7679 19.8566 22.1283 19.8566 21.3393C19.8566 19.7613 18.5774 18.4821 16.9995 18.4821H9.32116" stroke="#1A75E5" stroke-linecap="round" stroke-linejoin="round"/>
<path d="M6.14237 16.7679L7.42809 18.0535C8.13816 18.7637 9.28942 18.7637 9.99952 18.0535C10.7096 17.3434 10.7096 16.1922 9.99952 15.4821L8.00371 13.4864C7.36073 12.8434 6.48866 12.4821 5.57935 12.4821H0.999512" stroke="#1A75E5" stroke-linecap="round" stroke-linejoin="round"/>
</g>
<defs>
<clipPath id="clip0_0_1149">
<rect width="24" height="24" fill="white"/>
</clipPath>
</defs>
</svg>
