<svg width="22" height="22" viewBox="0 0 22 22" fill="none" xmlns="http://www.w3.org/2000/svg">
<g clip-path="url(#clip0_152_3882)">
<path d="M8.2465 20.3998C7.2808 21.0227 6.13003 21.2942 4.98768 21.1687C3.84534 21.0429 2.78109 20.5278 1.97391 19.7097L1.26824 19.0197C0.958866 18.7032 0.785645 18.2783 0.785645 17.8358C0.785645 17.3933 0.958866 16.9682 1.26824 16.6519L4.2634 13.6881C4.5772 13.3797 4.99956 13.2069 5.43952 13.2069C5.87948 13.2069 6.30185 13.3797 6.61563 13.6881C6.93207 13.9974 7.35704 14.1707 7.79959 14.1707C8.24214 14.1707 8.6671 13.9974 8.98354 13.6881L13.688 8.9836C13.8449 8.82894 13.9696 8.64463 14.0546 8.44138C14.1397 8.23813 14.1835 8.01998 14.1835 7.79965C14.1835 7.57931 14.1397 7.36118 14.0546 7.15792C13.9696 6.95467 13.8449 6.77035 13.688 6.61569C13.3796 6.30191 13.2068 5.87954 13.2068 5.43959C13.2068 4.99962 13.3796 4.57727 13.688 4.26347L16.6674 1.28399C16.9839 0.974612 17.4088 0.801392 17.8514 0.801392C18.294 0.801392 18.7189 0.974612 19.0354 1.28399L19.7254 1.98966C20.5434 2.79684 21.0585 3.86109 21.1842 5.00342C21.3099 6.14577 21.0384 7.29655 20.4153 8.26225C17.1692 13.0463 13.0389 17.1659 8.2465 20.3998Z" stroke="white" stroke-linecap="round" stroke-linejoin="round"/>
</g>
<defs>
<clipPath id="clip0_152_3882">
<rect width="22" height="22" fill="white"/>
</clipPath>
</defs>
</svg>
