<svg width="24" height="24" viewBox="0 0 24 24" fill="none" xmlns="http://www.w3.org/2000/svg">
<path d="M10.5301 21.7639C9.61611 22.3536 8.5269 22.6106 7.44568 22.4916C6.36448 22.3726 5.35719 21.8851 4.59318 21.1109L3.92528 20.4578C3.63246 20.1583 3.46851 19.7561 3.46851 19.3371C3.46851 18.9183 3.63246 18.5162 3.92528 18.2165L6.76017 15.4114C7.05717 15.1195 7.45693 14.9559 7.87335 14.9559C8.28976 14.9559 8.68953 15.1195 8.98653 15.4114C9.28604 15.7042 9.68826 15.8681 10.1071 15.8681C10.526 15.8681 10.9282 15.7042 11.2277 15.4114L15.6804 10.9587C15.829 10.8123 15.9469 10.6378 16.0274 10.4454C16.108 10.2531 16.1494 10.0466 16.1494 9.83806C16.1494 9.62951 16.108 9.42305 16.0274 9.23067C15.9469 9.03829 15.829 8.86384 15.6804 8.71746C15.3886 8.42046 15.225 8.02071 15.225 7.60429C15.225 7.18786 15.3886 6.7881 15.6804 6.4911L18.5005 3.67105C18.8 3.37823 19.2021 3.21428 19.6211 3.21428C20.0399 3.21428 20.4423 3.37823 20.7418 3.67105L21.3947 4.33895C22.1691 5.10296 22.6566 6.11026 22.7756 7.19147C22.8945 8.27269 22.6376 9.36188 22.0479 10.2759C18.9754 14.8039 15.0661 18.7032 10.5301 21.7639Z" stroke="white" stroke-linecap="round" stroke-linejoin="round"/>
<path d="M11.8867 1.98339L6.29071 7.57937C5.62123 8.24883 4.53581 8.24883 3.86635 7.57937L1.3988 5.11181" stroke="white" stroke-linecap="round" stroke-linejoin="round"/>
<path d="M7.92029 1.98339H11.8871V5.95021" stroke="white" stroke-linecap="round" stroke-linejoin="round"/>
</svg>
