<svg width="24" height="24" viewBox="0 0 24 24" fill="none" xmlns="http://www.w3.org/2000/svg">
<g clip-path="url(#clip0_0_1064)">
<path d="M11.9968 0.946077C9.99725 0.9467 8.03537 1.48965 6.32006 2.51712C4.60474 3.54457 3.20024 5.01805 2.25614 6.78061C1.31202 8.54317 0.863676 10.5288 0.958838 12.526C1.054 14.5233 1.68911 16.4573 2.79653 18.1221L0.942871 23.0539L7.15004 21.9314C8.64471 22.6618 10.285 23.0455 11.9485 23.0537C13.6121 23.0619 15.2561 22.6946 16.7579 21.979C18.2596 21.2635 19.5807 20.2181 20.6223 18.9211C21.6639 17.6239 22.3993 16.1083 22.7737 14.4874C23.1479 12.8665 23.1517 11.182 22.7843 9.55947C22.4171 7.93695 21.6884 6.41823 20.6524 5.11656C19.6165 3.81488 18.3001 2.76382 16.8014 2.04173C15.3027 1.31962 13.6603 0.945095 11.9968 0.946077Z" stroke="#1A75E5" stroke-linecap="round" stroke-linejoin="round"/>
<path d="M9.4458 9.44906C9.4458 8.94455 9.59541 8.45135 9.87571 8.03186C10.156 7.61236 10.5544 7.28541 11.0205 7.09235C11.4866 6.89927 11.9995 6.84875 12.4943 6.94718C12.9892 7.0456 13.4437 7.28855 13.8005 7.64531C14.1572 8.00205 14.4002 8.45658 14.4986 8.95141C14.597 9.44623 14.5465 9.95913 14.3534 10.4252C14.1603 10.8914 13.8334 11.2898 13.4139 11.57C12.9944 11.8503 12.5012 12 11.9967 12V13.7006" stroke="#1A75E5" stroke-linecap="round" stroke-linejoin="round"/>
<path d="M12.0001 17.9522C11.7653 17.9522 11.575 17.7617 11.575 17.527C11.575 17.2922 11.7653 17.1018 12.0001 17.1018" stroke="#1A75E5" stroke-linecap="round" stroke-linejoin="round"/>
<path d="M11.9998 17.9523C12.2346 17.9523 12.4249 17.7621 12.4249 17.5272C12.4249 17.2923 12.2346 17.1021 11.9998 17.1021" stroke="#1A75E5" stroke-linecap="round" stroke-linejoin="round"/>
</g>
<defs>
<clipPath id="clip0_0_1064">
<rect width="24" height="24" fill="white"/>
</clipPath>
</defs>
</svg>
