<svg width="24" height="24" viewBox="0 0 24 24" fill="none" xmlns="http://www.w3.org/2000/svg">
<path d="M1.55347 18.308C1.55347 19.2548 2.32099 20.0223 3.26775 20.0223H20.7321C21.6788 20.0223 22.4464 19.2548 22.4464 18.308V15.1543C21.0573 14.7777 20.0356 13.5082 20.0356 12C20.0356 10.4918 21.0573 9.22224 22.4464 8.8457V5.69195C22.4464 4.74518 21.6788 3.97766 20.7321 3.97766H3.26775C2.32099 3.97766 1.55347 4.74518 1.55347 5.69195V8.83855C2.95611 9.20596 3.99096 10.4821 3.99096 12C3.99096 13.5178 2.95611 14.794 1.55347 15.1614V18.308Z" stroke="#1A75E5" stroke-linecap="round" stroke-linejoin="round"/>
<path d="M15.616 3.99106V6.80357" stroke="#1A75E5" stroke-linecap="round" stroke-linejoin="round"/>
<path d="M15.616 10.5938V13.4062" stroke="#1A75E5" stroke-linecap="round" stroke-linejoin="round"/>
<path d="M15.616 17.2099V20.0223" stroke="#1A75E5" stroke-linecap="round" stroke-linejoin="round"/>
</svg>
