<svg width="22" height="22" viewBox="0 0 22 22" fill="none" xmlns="http://www.w3.org/2000/svg">
<g clip-path="url(#clip0_241_5825)">
<path d="M7.85728 10.2143C10.027 10.2143 11.7859 8.45541 11.7859 6.28572C11.7859 4.11603 10.027 2.35715 7.85728 2.35715C5.6876 2.35715 3.92871 4.11603 3.92871 6.28572C3.92871 8.45541 5.6876 10.2143 7.85728 10.2143Z" stroke="#1A75E5" stroke-linecap="round" stroke-linejoin="round"/>
<path d="M0.785645 21.2143H7.85707H14.9285V20.3624C14.916 19.1647 14.6001 17.9896 14.0104 16.9471C13.4206 15.9044 12.5762 15.0284 11.5561 14.4006C10.536 13.7728 9.37336 13.4139 8.17689 13.3572C8.07022 13.3522 7.96359 13.3495 7.85707 13.3493C7.75056 13.3495 7.64393 13.3522 7.53726 13.3572C6.34079 13.4139 5.17818 13.7728 4.15804 14.4006C3.13792 15.0284 2.29354 15.9044 1.70378 16.9471C1.11404 17.9896 0.798155 19.1647 0.785645 20.3624V21.2143Z" stroke="#1A75E5" stroke-linecap="round" stroke-linejoin="round"/>
<path d="M14.1426 10.2143C16.3122 10.2143 18.0711 8.45541 18.0711 6.28572C18.0711 4.11603 16.3122 2.35715 14.1426 2.35715" stroke="#1A75E5" stroke-linecap="round" stroke-linejoin="round"/>
<path d="M18.0715 21.2144H21.2144V20.3624C21.2018 19.1647 20.8859 17.9895 20.2962 16.9471C19.7064 15.9044 18.8621 15.0284 17.8419 14.4006C17.1825 13.9948 16.4635 13.7013 15.7144 13.5292" stroke="#1A75E5" stroke-linecap="round" stroke-linejoin="round"/>
</g>
<defs>
<clipPath id="clip0_241_5825">
<rect width="22" height="22" fill="white"/>
</clipPath>
</defs>
</svg>
