<svg width="146" height="125" viewBox="0 0 146 125" fill="none" xmlns="http://www.w3.org/2000/svg">
<path fill-rule="evenodd" clip-rule="evenodd" d="M0 19.25C10.1141 21.4336 24.6128 31.2682 30.028 40.212C27.8968 45.1206 25.7308 49.7322 23.7045 54.1866C21.6781 58.641 19.809 62.519 18.1495 66.4144C20.368 54.4661 19.2326 37.1376 0 19.4072V19.25Z" fill="#F58220"/>
<path fill-rule="evenodd" clip-rule="evenodd" d="M48.7715 0C47.6186 7.14453 42.2209 18.5513 37.225 29.1196C35.2511 33.2771 33.347 37.3122 31.8098 40.8408C29.6787 45.7494 27.4951 50.4309 25.4164 54.8155C16.4901 73.9083 9.76483 88.3895 17.084 99.3246C17.153 99.4278 17.201 99.5436 17.2252 99.6653C17.2494 99.7871 17.2493 99.9124 17.225 100.034C17.2006 100.156 17.1525 100.272 17.0833 100.375C17.0142 100.478 16.9254 100.566 16.822 100.635C16.6843 100.721 16.5291 100.774 16.3678 100.792C12.8631 100.837 9.37761 101.318 5.99168 102.224C4.52435 102.801 4.01777 103.727 5.0484 105.299H5.55498C6.56814 105.299 7.9656 105.089 9.67749 104.88C11.3894 104.67 13.3633 104.39 15.4944 104.076C25.9754 102.521 40.6313 99.971 47.6186 98.6434C48.9267 98.5214 50.1886 98.0967 51.3044 97.4031C51.3044 97.4031 51.1996 97.2634 51.0074 97.1411C49.6003 96.3772 48.0455 95.9245 46.4482 95.8135C43.2287 95.6098 40.079 94.7853 37.1726 93.3854C35.9631 92.759 34.9498 91.8113 34.2441 90.6463C33.5384 89.4814 33.1675 88.1444 33.1723 86.7824C32.823 74.2751 42.5877 56.44 50.2388 42.4654C52.4049 38.5001 54.4138 34.8492 55.951 31.7049C61.995 19.4771 55.951 10.5858 50.1166 2.00885C49.6624 1.34506 49.2257 0.681263 48.7715 0.0349365V0Z" fill="#F58220"/>
<path fill-rule="evenodd" clip-rule="evenodd" d="M72.1441 69.0521L69.6286 76.1093H79.3061H86.5554L89.0708 69.0521H80.8083H72.1441Z" fill="#00AEEF"/>
<path fill-rule="evenodd" clip-rule="evenodd" d="M63.6892 52.4398L49.0858 92.7216H71.9517H82.7297L85.6469 84.6688H71.3404H63.0779L71.8469 60.4927H80.1094H94.2063L97.1235 52.4398H87.5684H63.6892Z" fill="#00AEEF"/>
<path fill-rule="evenodd" clip-rule="evenodd" d="M51.6014 52.4398L36.9979 92.7216H44.0551L58.6585 52.4398H51.6014Z" fill="#00AEEF"/>
<path fill-rule="evenodd" clip-rule="evenodd" d="M100.146 52.4048L97.2807 60.4927H108.338L96.5995 92.5644H107.465L119.186 60.4927H130.243L133.108 52.5097L132.916 52.4048H123.64H100.146Z" fill="#00AEEF"/>
<path d="M4.20972 124.566V112.985H12.612V114.347H5.7644V117.841H12.1927V119.326H5.7644V123.291H12.8915V124.566H4.20972ZM15.0051 124.566V112.985H16.5773L22.6912 122.103V112.985H24.2109V124.566H22.6388L16.5249 115.43V124.566H15.0051ZM34.5696 124.566L30.0628 112.95H31.8096L34.6919 121.422C34.9364 122.103 35.1286 122.732 35.3033 123.326C35.4779 122.697 35.6876 122.068 35.9321 121.422L39.0589 112.985H40.6311L36.1592 124.566H34.5696ZM42.343 124.566V112.985H43.8802V124.566H42.343ZM46.6227 124.566V112.985H55.0249V114.347H48.1599V117.841H54.5882V119.326H48.1599V123.291H55.3044V124.566H46.6227ZM60.3877 124.566V114.347H56.5447V112.985H65.7679V114.347H61.9249V124.566H60.3877ZM77 120.007V118.645H81.8562V122.994C81.1477 123.562 80.3589 124.021 79.5155 124.357C78.7224 124.655 77.8823 124.809 77.035 124.811C75.9516 124.828 74.8817 124.57 73.9256 124.06C73.012 123.601 72.2708 122.86 71.812 121.946C71.33 120.987 71.0844 119.927 71.0958 118.854C71.0901 117.754 71.335 116.667 71.812 115.675C72.2415 114.747 72.958 113.981 73.8557 113.491C74.8012 113.009 75.8516 112.769 76.9127 112.793C77.6944 112.776 78.4718 112.913 79.201 113.194C79.8251 113.42 80.375 113.813 80.7907 114.33C81.2132 114.898 81.5162 115.546 81.6815 116.234L80.2841 116.618C80.1571 116.116 79.938 115.642 79.6377 115.221C79.3481 114.857 78.9689 114.574 78.5372 114.4C78.0249 114.201 77.4797 114.1 76.9302 114.103C76.3333 114.097 75.7408 114.204 75.1833 114.417C74.7063 114.607 74.2769 114.899 73.9256 115.273C73.6176 115.607 73.3694 115.991 73.192 116.409C72.9015 117.155 72.7534 117.949 72.7552 118.749C72.721 119.648 72.9069 120.542 73.2968 121.352C73.6256 122.03 74.1733 122.578 74.8514 122.907C75.5248 123.24 76.2661 123.414 77.0175 123.413C77.6887 123.416 78.3537 123.286 78.974 123.029C79.4949 122.84 79.9794 122.562 80.4064 122.208V120.042L77 120.007ZM84.2144 124.566V112.985H89.3676C90.166 112.951 90.9642 113.057 91.7258 113.299C92.2697 113.508 92.7259 113.896 93.0184 114.4C93.3458 114.923 93.5156 115.529 93.5076 116.147C93.5187 116.532 93.4534 116.915 93.3155 117.275C93.1776 117.635 92.9698 117.964 92.704 118.243C92.0241 118.872 91.1482 119.248 90.2235 119.308C90.5577 119.463 90.8692 119.663 91.1493 119.902C91.6406 120.361 92.0747 120.877 92.442 121.439L94.4508 124.566H92.5293L90.9921 122.156C90.538 121.457 90.1711 120.915 89.8742 120.549C89.6543 120.253 89.389 119.993 89.0881 119.78C88.8786 119.629 88.641 119.522 88.3894 119.466C88.1046 119.44 87.8182 119.44 87.5334 119.466H85.7866V124.706L84.2144 124.566ZM85.7516 118.086H89.0531C89.6441 118.109 90.2347 118.032 90.8 117.858C91.1663 117.731 91.4797 117.485 91.6909 117.16C91.8989 116.85 92.0085 116.485 92.0053 116.112C92.01 115.858 91.9593 115.606 91.8567 115.374C91.7542 115.141 91.6022 114.934 91.4114 114.767C90.8655 114.357 90.1871 114.164 89.5073 114.225H85.839V118.086H85.7516ZM95.4465 118.907C95.3523 117.253 95.9105 115.629 97.0012 114.382C97.5147 113.837 98.139 113.409 98.8321 113.126C99.5251 112.843 100.271 112.711 101.019 112.74C102.037 112.731 103.039 112.997 103.919 113.509C104.775 114.014 105.462 114.761 105.893 115.657C106.345 116.631 106.572 117.694 106.556 118.767C106.58 119.861 106.34 120.946 105.858 121.929C105.417 122.826 104.709 123.564 103.831 124.042C102.968 124.529 101.993 124.782 101.001 124.776C99.9675 124.786 98.9512 124.508 98.0668 123.972C97.2182 123.456 96.5384 122.703 96.1103 121.806C95.6714 120.903 95.4444 119.911 95.4465 118.907ZM97.0361 118.907C96.9635 120.116 97.3645 121.306 98.1541 122.226C98.5167 122.616 98.9579 122.926 99.4487 123.133C99.9394 123.341 100.469 123.442 101.001 123.431C101.537 123.448 102.069 123.348 102.561 123.137C103.053 122.925 103.493 122.608 103.849 122.208C104.668 121.236 105.076 119.983 104.984 118.714C105.006 117.897 104.864 117.083 104.565 116.321C104.273 115.647 103.787 115.075 103.168 114.679C102.541 114.283 101.813 114.077 101.071 114.085C100.552 114.077 100.036 114.171 99.5532 114.363C99.0705 114.555 98.6306 114.84 98.2589 115.203C97.8221 115.715 97.4932 116.311 97.2921 116.953C97.091 117.595 97.0217 118.272 97.0886 118.942L97.0361 118.907ZM116.251 112.932H117.806V119.64C117.837 120.588 117.701 121.534 117.404 122.435C117.142 123.165 116.636 123.782 115.972 124.182C115.145 124.657 114.2 124.887 113.247 124.846C112.327 124.884 111.413 124.685 110.592 124.269C109.912 123.931 109.383 123.352 109.107 122.645C108.769 121.711 108.615 120.72 108.653 119.728V112.985H110.19V119.693C110.159 120.443 110.254 121.192 110.469 121.911C110.655 122.387 111.001 122.782 111.447 123.029C111.983 123.315 112.588 123.448 113.194 123.413C113.627 123.455 114.064 123.408 114.478 123.276C114.893 123.144 115.276 122.929 115.605 122.645C116.188 121.778 116.442 120.731 116.321 119.693V112.985L116.251 112.932ZM120.286 124.566V112.985H124.653C125.238 112.974 125.822 113.009 126.4 113.09C126.911 113.167 127.399 113.352 127.833 113.631C128.239 113.915 128.564 114.301 128.776 114.749C129.008 115.247 129.128 115.79 129.125 116.339C129.142 116.8 129.067 117.259 128.905 117.691C128.743 118.122 128.498 118.518 128.182 118.854C127.702 119.258 127.144 119.558 126.543 119.735C125.942 119.912 125.31 119.963 124.688 119.885H121.806V124.566H120.286ZM121.824 118.47H124.828C125.577 118.547 126.329 118.348 126.942 117.911C127.155 117.715 127.323 117.473 127.431 117.204C127.54 116.935 127.588 116.646 127.571 116.356C127.597 115.928 127.494 115.502 127.274 115.133C127.032 114.805 126.688 114.565 126.296 114.452C125.824 114.363 125.343 114.328 124.863 114.347H121.894V118.505L121.824 118.47Z" fill="#F58220"/>
<path d="M140.026 51.9507V47.5137H142C142.301 47.5058 142.602 47.5471 142.891 47.636C143.099 47.7199 143.276 47.8664 143.397 48.0552C143.516 48.2625 143.576 48.4978 143.572 48.7365C143.579 49.0272 143.472 49.3091 143.275 49.5226C143.01 49.7541 142.681 49.9003 142.332 49.9418C142.457 49.9957 142.574 50.0662 142.681 50.1514C142.865 50.3308 143.029 50.53 143.17 50.7453L143.939 51.9507H143.205L142.611 51.0248L142.192 50.4134C142.107 50.3016 142.007 50.2017 141.895 50.1165L141.633 50.0117H141.301H140.62V51.9856L140.026 51.9507ZM140.62 49.4527H141.877C142.086 49.4846 142.298 49.4846 142.506 49.4527C142.647 49.3945 142.768 49.2976 142.856 49.1732C142.93 49.0583 142.972 48.9256 142.978 48.7889C142.977 48.6908 142.956 48.5939 142.917 48.5039C142.878 48.4139 142.822 48.3326 142.751 48.2649C142.54 48.1083 142.279 48.0338 142.017 48.0552H140.62V49.4527Z" fill="#00AEEF"/>
<path fill-rule="evenodd" clip-rule="evenodd" d="M141.685 46.1337C142.376 46.1337 143.052 46.3386 143.626 46.7225C144.201 47.1064 144.649 47.652 144.913 48.2904C145.177 48.9288 145.247 49.6313 145.112 50.309C144.977 50.9867 144.644 51.6092 144.156 52.0978C143.667 52.5864 143.045 52.9191 142.367 53.0539C141.689 53.1887 140.987 53.1195 140.348 52.8551C139.71 52.5907 139.164 52.1429 138.78 51.5684C138.397 50.9938 138.192 50.3184 138.192 49.6274C138.192 48.7008 138.56 47.8122 139.215 47.157C139.87 46.5018 140.759 46.1337 141.685 46.1337ZM141.685 45.4001C142.536 45.3966 143.368 45.6457 144.077 46.1158C144.786 46.5858 145.34 47.2558 145.668 48.0407C145.996 48.8256 146.083 49.6901 145.92 50.5248C145.756 51.3596 145.348 52.1269 144.748 52.7296C144.147 53.3323 143.382 53.7433 142.548 53.9106C141.714 54.0778 140.849 53.9937 140.062 53.669C139.276 53.3443 138.604 52.7935 138.131 52.0865C137.658 51.3794 137.406 50.5479 137.406 49.6973C137.403 49.1338 137.512 48.5754 137.726 48.0541C137.94 47.5329 138.255 47.059 138.653 46.6597C139.051 46.2605 139.523 45.9437 140.043 45.7275C140.564 45.5113 141.122 45.4001 141.685 45.4001Z" fill="#00AEEF"/>
</svg>
