<svg width="33" height="28" viewBox="0 0 33 28" fill="none" xmlns="http://www.w3.org/2000/svg">
<path d="M25.4523 0.531251H7.54765C7.13487 0.542594 6.73056 0.650955 6.36738 0.847575C6.00421 1.04419 5.69242 1.32356 5.45714 1.66309L0.981 7.8636C0.648625 8.33348 0.482634 8.90098 0.509367 9.476C0.536101 10.051 0.754029 10.6007 1.12856 11.0377L14.557 26.5142C14.7869 26.8107 15.0815 27.0506 15.4182 27.2155C15.755 27.3806 16.125 27.4662 16.4999 27.4662C16.8749 27.4662 17.2449 27.3806 17.5817 27.2155C17.9184 27.0506 18.213 26.8107 18.4429 26.5142L31.8713 11.0377C32.2458 10.6007 32.4638 10.051 32.4906 9.476C32.5172 8.90098 32.3513 8.33348 32.0189 7.8636L27.5428 1.66309C27.3075 1.32356 26.9958 1.04419 26.6326 0.847575C26.2694 0.650955 25.8649 0.542594 25.4523 0.531251Z" stroke="white" stroke-linecap="round" stroke-linejoin="round"/>
<path d="M15.2206 0.506639L9.21696 9.8074L16.5001 27.4" stroke="white" stroke-linecap="round" stroke-linejoin="round"/>
<path d="M17.8533 0.506639L23.8323 9.8074L16.5 27.4" stroke="white" stroke-linecap="round" stroke-linejoin="round"/>
<path d="M0.5558 9.80745H32.4441" stroke="white" stroke-linecap="round" stroke-linejoin="round"/>
</svg>
