<svg width="24" height="24" viewBox="0 0 24 24" fill="none" xmlns="http://www.w3.org/2000/svg">
<g clip-path="url(#clip0_0_1143)">
<path d="M12.6174 23.028C12.2205 23.1811 11.7807 23.1811 11.3838 23.028C8.2865 21.8388 5.62279 19.7381 3.74451 17.0033C1.86624 14.2685 0.861763 11.0283 0.863773 7.71057V2.5705C0.863773 2.1161 1.04429 1.68029 1.3656 1.35897C1.68692 1.03766 2.12271 0.857143 2.57714 0.857143H21.424C21.8785 0.857143 22.3143 1.03766 22.6355 1.35897C22.957 1.68029 23.1375 2.1161 23.1375 2.5705V7.71057C23.1394 11.0283 22.135 14.2685 20.2566 17.0033C18.3784 19.7381 15.7147 21.8388 12.6174 23.028Z" stroke="#1A75E5" stroke-linecap="round" stroke-linejoin="round"/>
<path d="M5.24355 7.79847L6.66033 7.31678C6.77696 7.26939 6.9075 7.26957 7.024 7.31722C7.14051 7.36488 7.23373 7.45627 7.28372 7.57179L8.31796 9.17275L13.9851 6.33919C14.4258 6.08652 14.9159 5.93203 15.4219 5.88627C15.9279 5.84052 16.4378 5.90458 16.9167 6.07409C17.3956 6.24358 17.8322 6.51454 18.1969 6.86839C18.5613 7.22225 18.8452 7.65067 19.0288 8.12434C19.066 8.24527 19.079 8.37235 19.0672 8.49833C19.0552 8.6243 19.0187 8.7467 18.9596 8.85854C18.9003 8.97036 18.8197 9.06943 18.7221 9.15009C18.6246 9.23074 18.5121 9.29139 18.3913 9.32859L15.0685 10.3044L14.7001 10.4177L13.425 14.1514C13.4027 14.2343 13.3598 14.3102 13.3004 14.3721C13.241 14.434 13.1669 14.4799 13.085 14.5056L11.0382 15.2582C10.9515 15.287 10.8589 15.2926 10.7694 15.2745C10.6799 15.2564 10.5967 15.2153 10.528 15.1552C10.4593 15.0951 10.4075 15.0181 10.3777 14.9318C10.3479 14.8455 10.3411 14.7529 10.3581 14.6632L11.279 11.6379L11.0382 11.7088L7.42539 12.8847C7.18863 12.9663 6.9292 12.9511 6.70364 12.8423C6.47807 12.7335 6.30464 12.5399 6.22113 12.3038L4.94603 8.37936C4.91368 8.26286 4.92632 8.13847 4.98143 8.03085C5.03655 7.92324 5.13011 7.8403 5.24355 7.79847Z" stroke="#1A75E5" stroke-linecap="round" stroke-linejoin="round"/>
</g>
<defs>
<clipPath id="clip0_0_1143">
<rect width="24" height="24" fill="white"/>
</clipPath>
</defs>
</svg>
