<svg width="24" height="24" viewBox="0 0 24 24" fill="none" xmlns="http://www.w3.org/2000/svg">
<path d="M11.9999 21.4286C16.2604 21.4286 19.7142 17.9748 19.7142 13.7143C19.7142 9.45381 16.2604 6 11.9999 6C7.73945 6 4.28564 9.45381 4.28564 13.7143C4.28564 17.9748 7.73945 21.4286 11.9999 21.4286Z" stroke="#1A75E5" stroke-linecap="round" stroke-linejoin="round"/>
<path d="M4.28575 13.7142H0.857178" stroke="#1A75E5" stroke-linecap="round" stroke-linejoin="round"/>
<path d="M0.857178 19.7142C1.71257 19.7168 2.55838 19.5342 3.3366 19.1792C4.11482 18.824 4.80703 18.3049 5.36575 17.6571" stroke="#1A75E5" stroke-linecap="round" stroke-linejoin="round"/>
<path d="M5.36575 9.7714C4.80703 9.12369 4.11482 8.60449 3.3366 8.24941C2.55838 7.89433 1.71257 7.71177 0.857178 7.71426" stroke="#1A75E5" stroke-linecap="round" stroke-linejoin="round"/>
<path d="M19.7144 13.7142H23.1429" stroke="#1A75E5" stroke-linecap="round" stroke-linejoin="round"/>
<path d="M23.1428 19.7142C22.2874 19.7168 21.4416 19.5342 20.6635 19.1792C19.8852 18.824 19.193 18.3049 18.6343 17.6571" stroke="#1A75E5" stroke-linecap="round" stroke-linejoin="round"/>
<path d="M18.6343 9.7714C19.193 9.12369 19.8852 8.60449 20.6635 8.24941C21.4416 7.89433 22.2874 7.71177 23.1428 7.71426" stroke="#1A75E5" stroke-linecap="round" stroke-linejoin="round"/>
<path d="M14.1257 6.29141C14.7817 5.91672 15.3269 5.37531 15.7063 4.72203C16.0856 4.06875 16.2855 3.32683 16.2857 2.57141" stroke="#1A75E5" stroke-linecap="round" stroke-linejoin="round"/>
<path d="M7.71436 2.57141C7.7146 3.32683 7.91452 4.06875 8.29384 4.72203C8.67316 5.37531 9.2184 5.91672 9.87436 6.29141" stroke="#1A75E5" stroke-linecap="round" stroke-linejoin="round"/>
<path d="M4.47437 12H19.5258" stroke="#1A75E5" stroke-linecap="round" stroke-linejoin="round"/>
</svg>
