<svg width="22" height="22" viewBox="0 0 22 22" fill="none" xmlns="http://www.w3.org/2000/svg">
<g clip-path="url(#clip0_0_390)">
<path d="M5.1002 10.0842L6.21588 9.51033C6.30677 9.45669 6.41506 9.44075 6.51755 9.46594C6.62004 9.49112 6.7086 9.55543 6.76428 9.64508L7.8191 10.8455L12.1702 7.79792C12.5047 7.53411 12.8921 7.34564 13.3061 7.24542C13.7201 7.14518 14.1508 7.13554 14.5689 7.21716C14.987 7.29878 15.3824 7.46974 15.7283 7.71834C16.0741 7.96692 16.3623 8.28729 16.5729 8.65752C16.6186 8.75324 16.6452 8.85703 16.6509 8.96296C16.6565 9.0689 16.6411 9.17491 16.6058 9.27495C16.5706 9.37499 16.5159 9.46707 16.4448 9.54596C16.374 9.62486 16.2882 9.68901 16.1925 9.73475L13.5569 10.953L13.2653 11.0924L12.6674 14.3458C12.6591 14.4173 12.6329 14.4855 12.5913 14.5442C12.5496 14.6028 12.4938 14.6501 12.429 14.6814L10.8242 15.5576C10.7559 15.5921 10.6797 15.6081 10.6033 15.6042C10.5268 15.6002 10.4528 15.5763 10.3884 15.5349C10.324 15.4935 10.2716 15.436 10.2362 15.3681C10.2009 15.3002 10.1839 15.2243 10.1869 15.1478L10.5783 12.5255L10.3873 12.6139L7.53579 14.0339C7.34948 14.1307 7.13245 14.15 6.93198 14.0875C6.73153 14.025 6.56388 13.8859 6.46555 13.7004L4.92495 10.6026C4.88378 10.51 4.87894 10.4052 4.91141 10.3092C4.94387 10.2132 5.01126 10.1329 5.1002 10.0842Z" stroke="#1A75E5" stroke-linecap="round" stroke-linejoin="round"/>
<path d="M3.15063 21.204V17.2795H7.0752" stroke="#1A75E5" stroke-linecap="round" stroke-linejoin="round"/>
<path d="M21.0305 9.125C22.0069 14.3179 18.829 19.466 13.6407 20.8562C9.66978 21.9203 5.61807 20.489 3.15039 17.5236" stroke="#1A75E5" stroke-linecap="round" stroke-linejoin="round"/>
<path d="M0.969255 12.8752C-0.00724308 7.6823 3.17058 2.53413 8.3589 1.14392C12.3296 0.0799787 16.3811 1.51099 18.8487 4.47597" stroke="#1A75E5" stroke-linecap="round" stroke-linejoin="round"/>
<path d="M18.8489 0.796143V4.7207H14.9243" stroke="#1A75E5" stroke-linecap="round" stroke-linejoin="round"/>
</g>
<defs>
<clipPath id="clip0_0_390">
<rect width="22" height="22" fill="white"/>
</clipPath>
</defs>
</svg>
