<svg width="50" height="62" viewBox="0 0 50 62" fill="none" xmlns="http://www.w3.org/2000/svg">
<path d="M27.6607 40.3075C27.5987 40.117 27.5043 39.9387 27.3816 39.7804L27.0095 39.3152C26.7212 39.0246 26.3782 38.7939 26.0003 38.6364C25.6225 38.479 25.2171 38.3979 24.8078 38.3979C24.3984 38.3979 23.9931 38.479 23.6152 38.6364C23.2373 38.7939 22.8944 39.0246 22.6061 39.3152C22.4583 39.4496 22.3327 39.6066 22.234 39.7804C22.1112 39.9387 22.0168 40.117 21.9549 40.3075C21.8651 40.494 21.8024 40.6924 21.7688 40.8967C21.7536 41.0928 21.7536 41.2898 21.7688 41.4859C21.7581 41.9027 21.8429 42.3164 22.0169 42.6953C22.3325 43.4494 22.933 44.0484 23.688 44.362C24.4429 44.6756 25.2912 44.6784 26.0482 44.3698C26.425 44.2012 26.7709 43.9706 27.0715 43.6876C27.3504 43.4018 27.5715 43.0649 27.7227 42.6953C27.8856 42.3128 27.97 41.9016 27.9708 41.4859C27.986 41.2898 27.986 41.0928 27.9708 40.8967C27.8983 40.6855 27.7937 40.4868 27.6607 40.3075ZM24.8078 16.6161C23.9854 16.6161 23.1966 16.9428 22.6151 17.5244C22.0335 18.1059 21.7068 18.8946 21.7068 19.7171V29.02C21.7068 29.8424 22.0335 30.6312 22.6151 31.2127C23.1966 31.7942 23.9854 32.1209 24.8078 32.1209C25.6302 32.1209 26.419 31.7942 27.0005 31.2127C27.582 30.6312 27.9088 29.8424 27.9088 29.02V19.7171C27.9088 18.8946 27.582 18.1059 27.0005 17.5244C26.419 16.9428 25.6302 16.6161 24.8078 16.6161ZM48.4682 5.1115C48.1079 4.82008 47.6869 4.61309 47.2362 4.50577C46.7854 4.39844 46.3163 4.3935 45.8634 4.49131C42.5498 5.18575 39.1291 5.1946 35.812 4.5173C32.4949 3.84001 29.3515 2.49091 26.5753 0.553075C26.0562 0.192967 25.4395 0 24.8078 0C24.176 0 23.5593 0.192967 23.0402 0.553075C20.2641 2.49091 17.1207 3.84001 13.8036 4.5173C10.4864 5.1946 7.06578 5.18575 3.75219 4.49131C3.29926 4.3935 2.83017 4.39844 2.37939 4.50577C1.92862 4.61309 1.50763 4.82008 1.14738 5.1115C0.7876 5.40336 0.497788 5.77212 0.299238 6.19069C0.100687 6.60925 -0.00155728 7.06699 1.79282e-05 7.53026V30.6325C-0.00273895 35.0785 1.05674 39.4608 3.09024 43.4146C5.12374 47.3683 8.0724 50.779 11.6907 53.3626L23.0092 61.4251C23.5344 61.7991 24.1631 62 24.8078 62C25.4525 62 26.0812 61.7991 26.6063 61.4251L37.9249 53.3626C41.5432 50.779 44.4918 47.3683 46.5253 43.4146C48.5588 39.4608 49.6183 35.0785 49.6155 30.6325V7.53026C49.6171 7.06699 49.5149 6.60925 49.3163 6.19069C49.1178 5.77212 48.828 5.40336 48.4682 5.1115ZM43.4136 30.6325C43.416 34.0893 42.5927 37.4967 41.0124 40.5712C39.432 43.6456 37.1402 46.2981 34.3278 48.308L24.8078 55.0991L15.2878 48.308C12.4753 46.2981 10.1836 43.6456 8.60319 40.5712C7.02283 37.4967 6.19958 34.0893 6.20196 30.6325V11.0964C12.7029 11.6528 19.2138 10.1444 24.8078 6.78603C30.4018 10.1444 36.9126 11.6528 43.4136 11.0964V30.6325Z" fill="#EB5757"/>
</svg>
