<svg width="22" height="22" viewBox="0 0 22 22" fill="none" xmlns="http://www.w3.org/2000/svg">
<path d="M1.42407 16.7824C1.42407 17.6503 2.12763 18.3538 2.9955 18.3538H19.0045C19.8722 18.3538 20.5759 17.6503 20.5759 16.7824V13.8914C19.3026 13.5463 18.366 12.3825 18.366 11C18.366 9.6175 19.3026 8.45373 20.5759 8.10856V5.21762C20.5759 4.34975 19.8722 3.64619 19.0045 3.64619H2.9955C2.12763 3.64619 1.42407 4.34975 1.42407 5.21762V8.10201C2.70983 8.4388 3.65844 9.60862 3.65844 11C3.65844 12.3914 2.70983 13.5612 1.42407 13.898V16.7824Z" stroke="#333333" stroke-linecap="round" stroke-linejoin="round"/>
<path d="M14.3147 3.65846V6.2366" stroke="#333333" stroke-linecap="round" stroke-linejoin="round"/>
<path d="M14.3147 9.71094V12.2891" stroke="#333333" stroke-linecap="round" stroke-linejoin="round"/>
<path d="M14.3147 15.7757V18.3538" stroke="#333333" stroke-linecap="round" stroke-linejoin="round"/>
</svg>
