<svg width="22" height="22" viewBox="0 0 22 22" fill="none" xmlns="http://www.w3.org/2000/svg">
<path d="M18.0714 6.28564H3.9285C2.19275 6.28564 0.785645 7.69275 0.785645 9.4285V18.0714C0.785645 19.8072 2.19275 21.2142 3.9285 21.2142H18.0714C19.8072 21.2142 21.2142 19.8072 21.2142 18.0714V9.4285C21.2142 7.69275 19.8072 6.28564 18.0714 6.28564Z" stroke="#1A75E5" stroke-linecap="round" stroke-linejoin="round"/>
<path d="M6.28564 21.2142V6.28564" stroke="#1A75E5" stroke-linecap="round" stroke-linejoin="round"/>
<path d="M15.7141 21.2142V6.28564" stroke="#1A75E5" stroke-linecap="round" stroke-linejoin="round"/>
<path d="M7.07129 6.28575C7.07129 5.24383 7.48519 4.24457 8.22194 3.50782C8.95869 2.77108 9.95794 2.35718 10.9999 2.35718C12.0418 2.35718 13.041 2.77108 13.7778 3.50782C14.5145 4.24457 14.9284 5.24383 14.9284 6.28575" stroke="#1A75E5" stroke-linecap="round" stroke-linejoin="round"/>
</svg>
