<svg width="24" height="24" viewBox="0 0 24 24" fill="none" xmlns="http://www.w3.org/2000/svg">
<path d="M18.857 9.42859H5.14275C4.19599 9.42859 3.42847 10.1961 3.42847 11.1429V21.4286C3.42847 22.3754 4.19599 23.1429 5.14275 23.1429H18.857C19.8038 23.1429 20.5713 22.3754 20.5713 21.4286V11.1429C20.5713 10.1961 19.8038 9.42859 18.857 9.42859Z" stroke="#1A75E5" stroke-linecap="round" stroke-linejoin="round"/>
<path d="M18 9.42861V6.85718C18 5.26587 17.3679 3.73975 16.2426 2.61454C15.1174 1.48932 13.5913 0.857178 12 0.857178C10.4087 0.857178 8.88257 1.48932 7.75737 2.61454C6.63214 3.73975 6 5.26587 6 6.85718V9.42861" stroke="#1A75E5" stroke-linecap="round" stroke-linejoin="round"/>
<path d="M12 17.1429C12.4733 17.1429 12.8571 16.7591 12.8571 16.2857C12.8571 15.8123 12.4733 15.4286 12 15.4286C11.5266 15.4286 11.1428 15.8123 11.1428 16.2857C11.1428 16.7591 11.5266 17.1429 12 17.1429Z" stroke="#1A75E5" stroke-linecap="round" stroke-linejoin="round"/>
</svg>
