<svg width="24" height="24" viewBox="0 0 24 24" fill="none" xmlns="http://www.w3.org/2000/svg">
<g clip-path="url(#clip0_0_1115)">
<path d="M5.7078 18.2925H3.22209C2.60069 18.2407 2.02144 17.9573 1.59921 17.4984C1.17698 17.0396 0.942627 16.4388 0.942627 15.8153C0.942627 15.1917 1.17698 14.591 1.59921 14.1321C2.02144 13.6733 2.60069 13.3899 3.22209 13.3382H7.16494L9.70209 10.801L2.74209 6.51529C2.20627 6.18406 1.8162 5.66173 1.65072 5.05393C1.48524 4.44612 1.5567 3.79815 1.85066 3.24101C1.98043 2.92215 2.17414 2.63326 2.41987 2.39218C2.66558 2.15108 2.95809 1.96289 3.27936 1.8392C3.60062 1.71552 3.9438 1.65896 4.28776 1.67303C4.63173 1.6871 4.96915 1.77149 5.27923 1.92101L14.3649 6.12101L18.7535 1.681C19.2263 1.20816 19.8676 0.94252 20.5364 0.94252C21.2051 0.94252 21.8464 1.20816 22.3192 1.681C22.792 2.15384 23.0578 2.79516 23.0578 3.46387C23.0578 4.13256 22.792 4.77387 22.3192 5.24672L17.8792 9.63529L22.0792 18.8067C22.2174 19.1121 22.2928 19.4422 22.3009 19.7774C22.3091 20.1123 22.25 20.4458 22.1267 20.7576C22.0036 21.0693 21.8192 21.3531 21.5843 21.5923C21.3493 21.8314 21.0688 22.021 20.7592 22.1496C20.2021 22.4436 19.5541 22.5149 18.9464 22.3495C18.3385 22.1841 17.8162 21.7939 17.485 21.2582L13.1992 14.2982L10.6621 16.8353V20.7782C10.6103 21.3996 10.327 21.9789 9.86812 22.4011C9.40927 22.8233 8.8085 23.0577 8.18494 23.0577C7.56141 23.0577 6.96062 22.8233 6.50179 22.4011C6.04294 21.9789 5.75954 21.3996 5.7078 20.7782V18.2925Z" stroke="#1A75E5" stroke-linecap="round" stroke-linejoin="round"/>
</g>
<defs>
<clipPath id="clip0_0_1115">
<rect width="24" height="24" fill="white"/>
</clipPath>
</defs>
</svg>
