<svg width="24" height="24" viewBox="0 0 24 24" fill="none" xmlns="http://www.w3.org/2000/svg">
<path d="M2.12573 11.2115L21.84 2.24582" stroke="#1A75E5" stroke-linecap="round" stroke-linejoin="round"/>
<path d="M18.1543 0.857147L21.84 2.24572L20.4686 5.93143" stroke="#1A75E5" stroke-linecap="round" stroke-linejoin="round"/>
<path d="M22.7142 23.1428H18.4285V11.1428C18.4285 10.9155 18.5188 10.6975 18.6794 10.5368C18.8402 10.376 19.0583 10.2857 19.2856 10.2857H21.857C22.0844 10.2857 22.3024 10.376 22.4632 10.5368C22.6238 10.6975 22.7142 10.9155 22.7142 11.1428V23.1428Z" stroke="#1A75E5" stroke-linecap="round" stroke-linejoin="round"/>
<path d="M14.1429 23.1429H9.85718V13.7143C9.85718 13.487 9.94749 13.2689 10.1082 13.1082C10.269 12.9475 10.487 12.8571 10.7143 12.8571H13.2857C13.5131 12.8571 13.7311 12.9475 13.8918 13.1082C14.0526 13.2689 14.1429 13.487 14.1429 13.7143V23.1429Z" stroke="#1A75E5" stroke-linecap="round" stroke-linejoin="round"/>
<path d="M5.57136 23.1429H1.28564V16.2857C1.28564 16.0584 1.37595 15.8404 1.5367 15.6796C1.69744 15.5189 1.91546 15.4286 2.14279 15.4286H4.71422C4.94155 15.4286 5.15957 15.5189 5.3203 15.6796C5.48105 15.8404 5.57136 16.0584 5.57136 16.2857V23.1429Z" stroke="#1A75E5" stroke-linecap="round" stroke-linejoin="round"/>
</svg>
