<svg width="44" height="24" viewBox="0 0 44 24" fill="none" xmlns="http://www.w3.org/2000/svg">
<g clip-path="url(#clip0_0_160)">
<circle cx="38.5" cy="5.5" r="4.5" fill="#F58220"/>
<path d="M38.2857 9.57143C40.6526 9.57143 42.5714 7.65265 42.5714 5.28571C42.5714 2.91878 40.6526 1 38.2857 1C35.9188 1 34 2.91878 34 5.28571C34 7.65265 35.9188 9.57143 38.2857 9.57143Z" stroke="white" stroke-linecap="round" stroke-linejoin="round"/>
<path d="M37.0274 13.7143V16.3433C37.0274 17.0138 37.2937 17.6568 37.7679 18.131C38.2419 18.605 39.0439 18.8714 39.7143 18.8714H20.8572C21.5277 18.8714 22.3295 18.605 22.8037 18.131C23.2778 17.6568 23.5441 17.0138 23.5441 16.3433L23.5441 10.1702C23.5441 8.38224 24.2544 6.66747 25.5187 5.40317C26.783 4.13887 28.4978 3.42859 30.2857 3.42859" stroke="white" stroke-linecap="round" stroke-linejoin="round"/>
<path d="M28.5715 23.1429H32.0001" stroke="white" stroke-linecap="round" stroke-linejoin="round"/>
</g>
<defs>
<clipPath id="clip0_0_160">
<rect width="24" height="24" fill="white" transform="translate(20)"/>
</clipPath>
</defs>
</svg>
