<svg width="24" height="24" viewBox="0 0 24 24" fill="none" xmlns="http://www.w3.org/2000/svg">
<g clip-path="url(#clip0_0_1032)">
<path d="M4.71436 12L8.14293 14.5714L14.1429 7.71429" stroke="#1A75E5" stroke-linecap="round" stroke-linejoin="round"/>
<path d="M20.5715 0.857147H4.28575C3.37644 0.857147 2.50437 1.21837 1.86139 1.86136C1.2184 2.50434 0.857178 3.37641 0.857178 4.28572V23.1429L5.14289 20.5714L9.42861 23.1429L13.7143 20.5714L18 23.1429V3.42858C18 2.7466 18.2709 2.09253 18.7531 1.6103C19.2353 1.12806 19.8895 0.857147 20.5715 0.857147ZM20.5715 0.857147C21.2534 0.857147 21.9076 1.12806 22.3898 1.6103C22.872 2.09253 23.1429 2.7466 23.1429 3.42858V9.42858H18" stroke="#1A75E5" stroke-linecap="round" stroke-linejoin="round"/>
</g>
<defs>
<clipPath id="clip0_0_1032">
<rect width="24" height="24" fill="white"/>
</clipPath>
</defs>
</svg>
