<svg width="22" height="22" viewBox="0 0 22 22" fill="none" xmlns="http://www.w3.org/2000/svg">
<path d="M1.57153 5.5H20.4287" stroke="white" stroke-linecap="round" stroke-linejoin="round"/>
<path d="M3.92871 5.5H18.0716V19.6429C18.0716 20.0596 17.9059 20.4594 17.6113 20.754C17.3167 21.0487 16.9169 21.2143 16.5001 21.2143H5.50014C5.08337 21.2143 4.68367 21.0487 4.38897 20.754C4.09428 20.4594 3.92871 20.0596 3.92871 19.6429V5.5Z" stroke="white" stroke-linecap="round" stroke-linejoin="round"/>
<path d="M7.07153 5.49993V4.71422C7.07153 3.6723 7.48543 2.67304 8.22218 1.93629C8.95893 1.19955 9.95818 0.785645 11.0001 0.785645C12.042 0.785645 13.0413 1.19955 13.778 1.93629C14.5148 2.67304 14.9287 3.6723 14.9287 4.71422V5.49993" stroke="white" stroke-linecap="round" stroke-linejoin="round"/>
<path d="M8.64307 10.2166V16.5047" stroke="white" stroke-linecap="round" stroke-linejoin="round"/>
<path d="M13.3572 10.2166V16.5047" stroke="white" stroke-linecap="round" stroke-linejoin="round"/>
</svg>
