<svg width="22" height="22" viewBox="0 0 22 22" fill="none" xmlns="http://www.w3.org/2000/svg">
<path d="M2.35707 18.8571H19.6428C20.5107 18.8571 21.2142 18.1536 21.2142 17.2857V4.71425C21.2142 3.84637 20.5107 3.14282 19.6428 3.14282H2.35707C1.4892 3.14282 0.785645 3.84637 0.785645 4.71425V17.2857C0.785645 18.1536 1.4892 18.8571 2.35707 18.8571Z" stroke="#1A75E5" stroke-linecap="round" stroke-linejoin="round"/>
<path d="M14.9314 9.76184C16.012 9.76184 16.8881 8.88579 16.8881 7.80512C16.8881 6.72444 16.012 5.84839 14.9314 5.84839C13.8507 5.84839 12.9746 6.72444 12.9746 7.80512C12.9746 8.88579 13.8507 9.76184 14.9314 9.76184Z" stroke="#1A75E5" stroke-linecap="round" stroke-linejoin="round"/>
<path d="M14.2727 18.8573C13.7848 16.2583 12.3893 13.9173 10.3353 12.2519C8.28131 10.5865 5.70241 9.70504 3.05875 9.76482C2.29601 9.76279 1.53483 9.83383 0.785645 9.97697" stroke="#1A75E5" stroke-linecap="round" stroke-linejoin="round"/>
<path d="M21.2141 14.0498C19.9763 13.6318 18.6786 13.419 17.3721 13.4197C15.7185 13.4161 14.0815 13.7508 12.562 14.4032" stroke="#1A75E5" stroke-linecap="round" stroke-linejoin="round"/>
</svg>
