<svg width="22" height="22" viewBox="0 0 22 22" fill="none" xmlns="http://www.w3.org/2000/svg">
<g clip-path="url(#clip0_0_718)">
<path d="M21.2142 10.9056C21.2158 10.6875 21.1718 10.4715 21.0852 10.2713C20.9986 10.0711 20.8713 9.8911 20.7114 9.74279L11 0.785645L1.28854 9.74279C1.12861 9.8911 1.0013 10.0711 0.914726 10.2713C0.828151 10.4715 0.784205 10.6875 0.78568 10.9056V19.6428C0.78568 20.0595 0.951241 20.4593 1.24594 20.7539C1.54064 21.0486 1.94035 21.2142 2.3571 21.2142H19.6428C20.0595 21.2142 20.4593 21.0486 20.7539 20.7539C21.0487 20.4593 21.2142 20.0595 21.2142 19.6428V10.9056Z" stroke="#333333" stroke-linecap="round" stroke-linejoin="round"/>
<path d="M11 21.2142V14.9285" stroke="#333333" stroke-linecap="round" stroke-linejoin="round"/>
</g>
<defs>
<clipPath id="clip0_0_718">
<rect width="22" height="22" fill="white"/>
</clipPath>
</defs>
</svg>
