<svg width="22" height="22" viewBox="0 0 22 22" fill="none" xmlns="http://www.w3.org/2000/svg">
<g clip-path="url(#clip0_0_125)">
<path d="M11.3172 7.42074C11.2252 7.16051 11.0833 6.92385 10.9029 6.72233C10.5192 6.29368 9.96172 6.02393 9.34118 6.02393H7.7194C6.68647 6.02393 5.84912 6.86128 5.84912 7.89419C5.84912 8.77311 6.46111 9.53344 7.31973 9.72128L9.78893 10.2614C10.7508 10.4718 11.4364 11.3242 11.4364 12.3089C11.4364 13.466 10.4983 14.4049 9.34118 14.4049H7.94435C7.03208 14.4049 6.25598 13.8218 5.96835 13.008" stroke="#1A75E5" stroke-linecap="round" stroke-linejoin="round"/>
<path d="M8.64282 6.0237V3.92847" stroke="#1A75E5" stroke-linecap="round" stroke-linejoin="round"/>
<path d="M8.64282 16.5V14.4048" stroke="#1A75E5" stroke-linecap="round" stroke-linejoin="round"/>
<path d="M18.8571 0.785645H3.9285C3.09497 0.785645 2.29557 1.11677 1.70617 1.70617C1.11677 2.29557 0.785645 3.09497 0.785645 3.9285V21.2142L4.71422 18.8571L8.64279 21.2142L12.5714 18.8571L16.4999 21.2142V3.14279C16.4999 2.51764 16.7482 1.91808 17.1903 1.47604C17.6323 1.03399 18.232 0.785645 18.8571 0.785645ZM18.8571 0.785645C19.4822 0.785645 20.0818 1.03399 20.5239 1.47604C20.9659 1.91808 21.2142 2.51764 21.2142 3.14279V8.64279H16.4999" stroke="#1A75E5" stroke-linecap="round" stroke-linejoin="round"/>
</g>
<defs>
<clipPath id="clip0_0_125">
<rect width="22" height="22" fill="white"/>
</clipPath>
</defs>
</svg>
