<svg width="24" height="24" viewBox="0 0 24 24" fill="none" xmlns="http://www.w3.org/2000/svg">
<path d="M8.57136 11.1429C10.9383 11.1429 12.8571 9.22407 12.8571 6.85714C12.8571 4.49021 10.9383 2.57143 8.57136 2.57143C6.20443 2.57143 4.28564 4.49021 4.28564 6.85714C4.28564 9.22407 6.20443 11.1429 8.57136 11.1429Z" stroke="white" stroke-linecap="round" stroke-linejoin="round"/>
<path d="M0.856934 23.1429H8.57122H16.2855V22.2135C16.2719 20.9069 15.9273 19.625 15.2839 18.4877C14.6405 17.3503 13.7194 16.3946 12.6065 15.7097C11.4936 15.0249 10.2254 14.6333 8.92011 14.5715C8.80374 14.566 8.68741 14.5631 8.57122 14.5629C8.45503 14.5631 8.33869 14.566 8.22233 14.5715C6.91709 14.6333 5.64879 15.0249 4.53591 15.7097C3.42305 16.3946 2.50191 17.3503 1.85854 18.4877C1.21518 19.625 0.870581 20.9069 0.856934 22.2135V23.1429Z" stroke="white" stroke-linecap="round" stroke-linejoin="round"/>
<path d="M15.4282 11.1429C17.7951 11.1429 19.7139 9.22407 19.7139 6.85714C19.7139 4.49021 17.7951 2.57143 15.4282 2.57143" stroke="white" stroke-linecap="round" stroke-linejoin="round"/>
<path d="M19.714 23.143H23.1426V22.2135C23.1289 20.9069 22.7843 19.625 22.1409 18.4877C21.4975 17.3503 20.5765 16.3946 19.4635 15.7098C18.7442 15.267 17.9598 14.9469 17.1426 14.7591" stroke="white" stroke-linecap="round" stroke-linejoin="round"/>
</svg>
