<svg width="24" height="24" viewBox="0 0 24 24" fill="none" xmlns="http://www.w3.org/2000/svg">
<path d="M19.7144 0.857147H4.28582C3.33905 0.857147 2.57153 1.62466 2.57153 2.57143V21.4286C2.57153 22.3754 3.33905 23.1429 4.28582 23.1429H19.7144C20.6612 23.1429 21.4287 22.3754 21.4287 21.4286V2.57143C21.4287 1.62466 20.6612 0.857147 19.7144 0.857147Z" stroke="#1A75E5" stroke-linecap="round" stroke-linejoin="round"/>
<path d="M12 15.4286C14.8403 15.4286 17.1429 13.126 17.1429 10.2857C17.1429 7.4454 14.8403 5.14285 12 5.14285C9.15972 5.14285 6.85718 7.4454 6.85718 10.2857C6.85718 13.126 9.15972 15.4286 12 15.4286Z" stroke="#1A75E5" stroke-linecap="round" stroke-linejoin="round"/>
<path d="M6.85718 10.2857H17.1429" stroke="#1A75E5" stroke-linecap="round" stroke-linejoin="round"/>
<path d="M12 15.4286V5.14285" stroke="#1A75E5" stroke-linecap="round" stroke-linejoin="round"/>
</svg>
