<svg width="22" height="22" viewBox="0 0 22 22" fill="none" xmlns="http://www.w3.org/2000/svg">
<path d="M8.21858 3.53564L8.8943 1.79136C9.00826 1.49603 9.20876 1.242 9.46952 1.06255C9.7303 0.883095 10.0392 0.78658 10.3557 0.785645H11.6443C11.9608 0.78658 12.2697 0.883095 12.5305 1.06255C12.7913 1.242 12.9918 1.49603 13.1057 1.79136L13.7814 3.53564L16.0757 4.85564L17.9299 4.57279C18.2387 4.53088 18.553 4.5817 18.8329 4.7188C19.1126 4.85591 19.3453 5.0731 19.5014 5.34279L20.1299 6.44279C20.291 6.71677 20.3653 7.03314 20.3429 7.35016C20.3204 7.66718 20.2024 7.96995 20.0042 8.2185L18.8571 9.67993V12.3199L20.0357 13.7814C20.2338 14.0299 20.3518 14.3327 20.3743 14.6497C20.3968 14.9667 20.3224 15.2831 20.1614 15.5571L19.5328 16.6571C19.3768 16.9267 19.144 17.1439 18.8643 17.2811C18.5844 17.4181 18.2702 17.469 17.9614 17.4271L16.1071 17.1442L13.8129 18.4642L13.1372 20.2085C13.0232 20.5038 12.8227 20.7579 12.5619 20.9373C12.3012 21.1168 11.9923 21.2133 11.6757 21.2142H10.3557C10.0392 21.2133 9.7303 21.1168 9.46952 20.9373C9.20876 20.7579 9.00826 20.5038 8.8943 20.2085L8.21858 18.4642L5.9243 17.1442L4.07001 17.4271C3.76126 17.469 3.447 17.4181 3.1672 17.2811C2.8874 17.1439 2.65467 16.9267 2.49858 16.6571L1.87001 15.5571C1.70894 15.2831 1.63474 14.9667 1.65718 14.6497C1.67962 14.3327 1.79766 14.0299 1.99573 13.7814L3.14287 12.3199V9.67993L1.9643 8.2185C1.76624 7.96995 1.64819 7.66718 1.62575 7.35016C1.60331 7.03314 1.67751 6.71677 1.83858 6.44279L2.46716 5.34279C2.62325 5.0731 2.85597 4.85591 3.13577 4.7188C3.41558 4.5817 3.72983 4.53088 4.03858 4.57279L5.89287 4.85564L8.21858 3.53564ZM7.85716 10.9999C7.85716 11.6215 8.04148 12.2292 8.38682 12.746C8.73217 13.2629 9.22301 13.6657 9.79729 13.9036C10.3716 14.1414 11.0035 14.2037 11.6132 14.0824C12.2228 13.9611 12.7828 13.6618 13.2224 13.2223C13.6619 12.7827 13.9612 12.2227 14.0825 11.6131C14.2037 11.0034 14.1415 10.3715 13.9036 9.79721C13.6658 9.22293 13.2629 8.73208 12.7461 8.38674C12.2292 8.0414 11.6216 7.85707 11 7.85707C10.1665 7.85707 9.36708 8.18819 8.77768 8.7776C8.18829 9.367 7.85716 10.1664 7.85716 10.9999Z" stroke="#1A75E5" stroke-linecap="round" stroke-linejoin="round"/>
</svg>
