<svg width="24" height="24" viewBox="0 0 24 24" fill="none" xmlns="http://www.w3.org/2000/svg">
<g clip-path="url(#clip0_0_692)">
<path d="M21.4286 6H2.57146C1.62469 6 0.857178 6.76752 0.857178 7.71429V21.4286C0.857178 22.3754 1.62469 23.1429 2.57146 23.1429H21.4286C22.3754 23.1429 23.1429 22.3754 23.1429 21.4286V7.71429C23.1429 6.76752 22.3754 6 21.4286 6Z" stroke="#1A75E5" stroke-linecap="round" stroke-linejoin="round"/>
<path d="M17.1429 6V2.57143C17.1429 2.11676 16.9623 1.68073 16.6408 1.35924C16.3193 1.03775 15.8833 0.85714 15.4286 0.85714H8.57146C8.1168 0.85714 7.68077 1.03775 7.35928 1.35924C7.0378 1.68073 6.85718 2.11676 6.85718 2.57143V6" stroke="#1A75E5" stroke-linecap="round" stroke-linejoin="round"/>
<path d="M14.1882 12.2857C14.113 12.0728 13.9969 11.8792 13.8493 11.7143C13.5354 11.3636 13.0792 11.1429 12.5715 11.1429H11.2446C10.3995 11.1429 9.71436 11.828 9.71436 12.6731C9.71436 13.3922 10.2151 14.0143 10.9176 14.168L12.9378 14.6099C13.7248 14.7821 14.2858 15.4795 14.2858 16.2851C14.2858 17.2318 13.5183 18 12.5715 18H11.4286C10.6822 18 10.0472 17.5229 9.8119 16.8572" stroke="#1A75E5" stroke-linecap="round" stroke-linejoin="round"/>
<path d="M12 11.1429V9.42857" stroke="#1A75E5" stroke-linecap="round" stroke-linejoin="round"/>
<path d="M12 19.7143V18" stroke="#1A75E5" stroke-linecap="round" stroke-linejoin="round"/>
</g>
<defs>
<clipPath id="clip0_0_692">
<rect width="24" height="24" fill="white"/>
</clipPath>
</defs>
</svg>
