<svg width="22" height="22" viewBox="0 0 22 22" fill="none" xmlns="http://www.w3.org/2000/svg">
<g clip-path="url(#clip0_410_6318)">
<path d="M20.2872 8.64294H1.71295C0.83296 8.64294 0.455817 7.68437 1.14725 7.22866L10.4344 1.14722C10.6059 1.04635 10.8012 0.993164 11.0001 0.993164C11.199 0.993164 11.3944 1.04635 11.5658 1.14722L20.853 7.22866C21.5444 7.68437 21.1672 8.64294 20.2872 8.64294Z" stroke="white" stroke-linecap="round" stroke-linejoin="round"/>
<path d="M20.4285 17.2856H1.57136C1.13742 17.2856 0.785645 17.6375 0.785645 18.0714V20.4285C0.785645 20.8624 1.13742 21.2142 1.57136 21.2142H20.4285C20.8624 21.2142 21.2142 20.8624 21.2142 20.4285V18.0714C21.2142 17.6375 20.8624 17.2856 20.4285 17.2856Z" stroke="white" stroke-linecap="round" stroke-linejoin="round"/>
<path d="M3.14258 8.64282V17.2857" stroke="white" stroke-linecap="round" stroke-linejoin="round"/>
<path d="M8.38086 8.64282V17.2857" stroke="white" stroke-linecap="round" stroke-linejoin="round"/>
<path d="M13.6191 8.64282V17.2857" stroke="white" stroke-linecap="round" stroke-linejoin="round"/>
<path d="M18.8569 8.64282V17.2857" stroke="white" stroke-linecap="round" stroke-linejoin="round"/>
</g>
<defs>
<clipPath id="clip0_410_6318">
<rect width="22" height="22" fill="white"/>
</clipPath>
</defs>
</svg>
