<svg width="24" height="24" viewBox="0 0 24 24" fill="none" xmlns="http://www.w3.org/2000/svg">
<g clip-path="url(#clip0_0_1026)">
<path d="M1.38859 6.48L3.73717 5.72571C3.89505 5.67648 4.06441 5.67812 4.22132 5.73042C4.37821 5.78273 4.51468 5.88303 4.61145 6.01714L6.22288 8.57142L15.0686 4.16571C15.7661 3.75668 16.5445 3.50487 17.3493 3.42786C18.1543 3.35086 18.9662 3.45053 19.7287 3.71989C20.4911 3.98926 21.1855 4.42182 21.7632 4.9874C22.3411 5.55296 22.7885 6.23787 23.0743 6.99428C23.1923 7.37621 23.1537 7.78928 22.9673 8.14284C22.7808 8.49641 22.4618 8.76152 22.08 8.87999L16.2686 10.7657L15.6857 10.9543L14.5886 14.7086C14.5553 14.8383 14.4887 14.9571 14.3955 15.0532C14.3023 15.1494 14.1857 15.2197 14.0572 15.2571L11.4172 16.1143C11.2786 16.1741 11.1263 16.1948 10.9768 16.1739C10.8274 16.153 10.6865 16.0914 10.5697 15.9958C10.4529 15.9002 10.3646 15.7744 10.3145 15.632C10.2644 15.4896 10.2545 15.3362 10.2857 15.1886L10.8343 12.5143L10.4572 12.6343L4.78288 14.4686C4.59952 14.5366 4.40447 14.5674 4.20908 14.5593C4.01368 14.5512 3.82185 14.5043 3.64477 14.4214C3.46768 14.3384 3.30885 14.221 3.17757 14.0761C3.04628 13.9312 2.94513 13.7615 2.88003 13.5771L0.89145 7.40571C0.83767 7.21707 0.8595 7.01487 0.952313 6.84205C1.04513 6.66924 1.20162 6.53936 1.38859 6.48Z" stroke="#1A75E5" stroke-linecap="round" stroke-linejoin="round"/>
<path d="M23.1429 23.1429H0.857178" stroke="#1A75E5" stroke-linecap="round" stroke-linejoin="round"/>
</g>
<defs>
<clipPath id="clip0_0_1026">
<rect width="24" height="24" fill="white"/>
</clipPath>
</defs>
</svg>
