<svg width="50" height="62" viewBox="0 0 50 62" fill="none" xmlns="http://www.w3.org/2000/svg">
<path d="M48.4682 5.1115C48.1079 4.82008 47.6869 4.61309 47.2362 4.50577C46.7854 4.39844 46.3163 4.3935 45.8634 4.49131C42.5498 5.18575 39.1291 5.1946 35.812 4.5173C32.4949 3.84001 29.3515 2.49091 26.5753 0.553075C26.0562 0.192967 25.4395 0 24.8078 0C24.176 0 23.5593 0.192967 23.0402 0.553075C20.2641 2.49091 17.1207 3.84001 13.8036 4.5173C10.4864 5.1946 7.06578 5.18575 3.75219 4.49131C3.29926 4.3935 2.83017 4.39844 2.37939 4.50577C1.92862 4.61309 1.50763 4.82008 1.14738 5.1115C0.7876 5.40336 0.497788 5.77212 0.299238 6.19069C0.100687 6.60925 -0.00155728 7.06699 1.79282e-05 7.53026V30.6325C-0.00273895 35.0785 1.05674 39.4608 3.09024 43.4146C5.12374 47.3683 8.0724 50.779 11.6907 53.3626L23.0092 61.4251C23.5344 61.7991 24.1631 62 24.8078 62C25.4525 62 26.0812 61.7991 26.6063 61.4251L37.9249 53.3626C41.5432 50.779 44.4918 47.3683 46.5253 43.4146C48.5588 39.4608 49.6183 35.0785 49.6155 30.6325V7.53026C49.6171 7.06699 49.5149 6.60925 49.3163 6.19069C49.1178 5.77212 48.828 5.40336 48.4682 5.1115ZM43.4136 30.6325C43.416 34.0893 42.5927 37.4967 41.0124 40.5712C39.432 43.6456 37.1402 46.2981 34.3278 48.308L24.8078 55.0991L15.2878 48.308C12.4753 46.2981 10.1836 43.6456 8.60319 40.5712C7.02283 37.4967 6.19958 34.0893 6.20196 30.6325V11.0964C12.7029 11.6528 19.2138 10.1444 24.8078 6.78603C30.4018 10.1444 36.9126 11.6528 43.4136 11.0964V30.6325ZM29.5833 23.5313L21.2417 31.9039L18.4818 29.113C17.8979 28.5291 17.1059 28.201 16.2801 28.201C15.4543 28.201 14.6623 28.5291 14.0784 29.113C13.4945 29.6969 13.1665 30.4889 13.1665 31.3147C13.1665 32.1405 13.4945 32.9325 14.0784 33.5164L19.04 38.4779C19.3283 38.7686 19.6712 38.9993 20.0491 39.1567C20.427 39.3141 20.8323 39.3952 21.2417 39.3952C21.651 39.3952 22.0563 39.3141 22.4342 39.1567C22.8121 38.9993 23.1551 38.7686 23.4434 38.4779L34.1107 27.9036C34.6946 27.3197 35.0227 26.5277 35.0227 25.7019C35.0227 24.8761 34.6946 24.0842 34.1107 23.5003C33.5268 22.9163 32.7348 22.5883 31.909 22.5883C31.0832 22.5883 30.2912 22.9163 29.7073 23.5003L29.5833 23.5313Z" fill="#27AE60"/>
</svg>
