<svg width="16" height="16" viewBox="0 0 16 16" fill="none" xmlns="http://www.w3.org/2000/svg">
<path d="M15.0746 4.32002L13.5089 3.81716C13.4036 3.78434 13.2907 3.78543 13.1861 3.8203C13.0815 3.85517 12.9905 3.92204 12.926 4.01145L11.8517 5.7143L5.95459 2.77716C5.48961 2.50447 4.97068 2.3366 4.43414 2.28526C3.89745 2.23393 3.35619 2.30037 2.84785 2.47995C2.33962 2.65953 1.87665 2.9479 1.49151 3.32495C1.10625 3.70199 0.807965 4.1586 0.617451 4.66287C0.538822 4.91749 0.564536 5.19287 0.688765 5.42858C0.813108 5.66429 1.02579 5.84103 1.28031 5.92002L5.15459 7.17716L5.54317 7.30287L6.27459 9.80573C6.29682 9.8922 6.34119 9.97139 6.4033 10.0355C6.46543 10.0996 6.54317 10.1465 6.62888 10.1714L8.38888 10.7429C8.48125 10.7828 8.5828 10.7965 8.68245 10.7826C8.78209 10.7687 8.87599 10.7276 8.95386 10.6639C9.03173 10.6002 9.09058 10.5163 9.12397 10.4214C9.15736 10.3264 9.164 10.2242 9.14317 10.1257L8.77745 8.34288L9.02888 8.42287L12.8117 9.64573C12.934 9.69107 13.064 9.71164 13.1943 9.70623C13.3245 9.70083 13.4524 9.66956 13.5705 9.61426C13.6885 9.55894 13.7944 9.4807 13.8819 9.38407C13.9695 9.28746 14.0369 9.17438 14.0803 9.05145L15.406 4.93716C15.4419 4.8114 15.4273 4.6766 15.3655 4.56139C15.3036 4.44618 15.1992 4.35959 15.0746 4.32002Z" stroke="white" stroke-linecap="round" stroke-linejoin="round"/>
<path d="M0.571567 15.4286H15.4287" stroke="white" stroke-linecap="round" stroke-linejoin="round"/>
</svg>
