<svg width="22" height="22" viewBox="0 0 22 22" fill="none" xmlns="http://www.w3.org/2000/svg">
<g clip-path="url(#clip0_145_3419)">
<path d="M2.20637 3.82927L4.45959 3.63985C4.61076 3.62843 4.76169 3.66482 4.89105 3.7439C5.02039 3.82296 5.12161 3.94069 5.18039 4.08043L6.09296 6.69413L14.9022 4.5831C15.6095 4.36159 16.3567 4.29719 17.0914 4.39437C17.8263 4.49159 18.5309 4.74802 19.1564 5.14585C19.7818 5.54364 20.3128 6.07319 20.7122 6.69748C21.1117 7.32179 21.3701 8.02579 21.4694 8.76032C21.496 9.12577 21.3764 9.48676 21.137 9.76412C20.8975 10.0415 20.5579 10.2125 20.1925 10.2396L14.613 10.7255L14.0536 10.7737L12.2995 13.9007C12.243 14.0097 12.159 14.1021 12.056 14.1688C11.9529 14.2355 11.8343 14.2742 11.7117 14.2811L9.17698 14.5023C9.04089 14.5272 8.90058 14.5142 8.77139 14.4647C8.64219 14.4152 8.5291 14.3312 8.44447 14.2217C8.35986 14.1123 8.30696 13.9817 8.29159 13.8442C8.27621 13.7067 8.29895 13.5676 8.35731 13.4422L9.39873 11.1667L9.03713 11.1961L3.59077 11.6644C3.41298 11.6873 3.2324 11.6746 3.05955 11.6271C2.8867 11.5796 2.72504 11.4981 2.58398 11.3875C2.44292 11.2769 2.32526 11.1393 2.23789 10.9828C2.1505 10.8263 2.09514 10.6539 2.07501 10.4758L1.57145 4.55358C1.56231 4.374 1.62351 4.1979 1.74204 4.06269C1.86057 3.92747 2.02713 3.84374 2.20637 3.82927Z" stroke="white" stroke-linecap="round" stroke-linejoin="round"/>
<path d="M21.2142 21.2143H0.785645" stroke="white" stroke-linecap="round" stroke-linejoin="round"/>
</g>
<defs>
<clipPath id="clip0_145_3419">
<rect width="22" height="22" fill="white"/>
</clipPath>
</defs>
</svg>
