<svg width="122" height="125" viewBox="0 0 122 125" fill="none" xmlns="http://www.w3.org/2000/svg">
<path d="M16.4001 3.79521L56.1786 49.8269L81.1281 34.3366L22.8316 0.150003C22.5424 -0.019842 22.1914 -0.0467164 21.8792 0.0758298L16.8257 2.06559C16.1259 2.34132 15.9077 3.22602 16.4001 3.79521Z" fill="#EAF1FF"/>
<path d="M16.9426 2.01996L16.8254 2.06618C16.1256 2.34191 15.9074 3.22661 16.3992 3.7958L56.1777 49.8275L81.1272 34.3372L74.4495 30.4211C63.4284 40.8649 41.7044 32.671 16.9426 2.01996Z" fill="white"/>
<path d="M78.663 124.169L64.0811 65.1048L91.1401 53.6935L85.3546 121.027C85.3261 121.361 85.1456 121.663 84.865 121.846L80.3206 124.821C79.6912 125.233 78.8436 124.9 78.663 124.169Z" fill="#EAF1FF"/>
<path d="M80.4259 124.752L80.3206 124.821C79.6912 125.233 78.843 124.9 78.663 124.169L64.0811 65.1048L91.1401 53.6935L90.4774 61.4064C75.5848 64.3663 69.7187 86.831 80.4259 124.752Z" fill="white"/>
<path d="M12.2286 77.7304C42.4292 58.231 84.6679 30.3512 95.2993 25.4983C105.931 20.6453 118.707 22.4389 120.993 26.8576C123.279 31.2768 113.79 44.5865 105.966 48.2026C98.1421 51.8188 23.7565 82.1076 16.1845 85.3782C8.61242 88.6493 3.49611 83.7555 12.2286 77.7304Z" fill="white"/>
<path d="M71.4345 57.012C38.7184 71.5149 15.999 82.3705 7.81956 82.6209C6.7661 85.9431 10.8655 87.6765 16.1849 85.3793C23.757 82.1087 98.142 51.8199 105.967 48.2037C113.791 44.5875 123.28 31.2779 120.994 26.8587C120.856 26.5931 120.679 26.3373 120.469 26.0917C116.643 34.9499 93.2122 47.3577 71.4345 57.012Z" fill="#EDEDED"/>
<path d="M0.0681131 58.7319L12.5496 78.6182L23.6255 71.5143L3.19251 57.415C3.0834 57.3398 2.94688 57.3172 2.8195 57.3543L0.32019 58.0729C0.0380109 58.1535 -0.0882945 58.4825 0.0681131 58.7319Z" fill="#EAF1FF"/>
<path d="M24.5767 106.115L15.5588 84.4365L27.757 79.5018L27.4571 104.325C27.4555 104.458 27.3947 104.582 27.2915 104.665L25.2604 106.29C25.0314 106.474 24.6896 106.386 24.5767 106.115Z" fill="#EAF1FF"/>
<path d="M112.944 40.2043C114.528 38.192 115.569 36.1162 116.01 34.1652L112.658 35.8991C112.938 37.2251 113.057 38.6612 112.944 40.2043Z" fill="#8CD3F6"/>
<path d="M112.301 34.5388L116.242 32.5006C116.293 31.3682 116.109 30.3045 115.682 29.3499L111.122 31.7089C111.581 32.5743 111.986 33.5192 112.301 34.5388Z" fill="#8CD3F6"/>
<path d="M105.017 24.8813C105.017 24.8813 106.307 25.7063 107.848 27.2795L111.115 25.5897C109.493 25.056 107.475 24.791 105.017 24.8813Z" fill="#8CD3F6"/>
<path d="M108.808 28.3287C109.357 28.9731 109.912 29.7047 110.43 30.5211L114.982 28.1669C114.428 27.437 113.688 26.8022 112.751 26.2895L108.808 28.3287Z" fill="#8CD3F6"/>
<path d="M75.8489 37.9512L77.1254 40.4188L80.0998 38.6241L78.7975 36.1066C77.8365 36.7053 76.8529 37.3207 75.8489 37.9512Z" fill="#8CD3F6"/>
<path d="M72.1262 40.3L73.3619 42.6896L76.3363 40.895L75.0679 38.4424C74.102 39.0503 73.1206 39.6701 72.1262 40.3Z" fill="#8CD3F6"/>
<path d="M42.5181 59.4177L43.2598 60.8512L46.2342 59.0565L45.4345 57.5107C44.4235 58.1713 43.4495 58.8088 42.5181 59.4177Z" fill="#8CD3F6"/>
<path d="M46.2078 57.0061L47.0226 58.5809L49.997 56.7863L49.1263 55.1034C48.1282 55.7537 47.1527 56.3896 46.2078 57.0061Z" fill="#8CD3F6"/>
<path d="M57.2935 49.8033L58.3109 51.7705L61.2853 49.9759L60.219 47.9146C59.2386 48.5467 58.262 49.1772 57.2935 49.8033Z" fill="#8CD3F6"/>
<path d="M49.9004 54.5997L50.7856 56.3111L53.7601 54.5164L52.8211 52.7014C51.8305 53.3442 50.855 53.9784 49.9004 54.5997Z" fill="#8CD3F6"/>
<path d="M60.9951 47.4147L62.0739 49.5001L65.0483 47.7054L63.9239 45.5319C62.9467 46.1591 61.9696 46.7874 60.9951 47.4147Z" fill="#8CD3F6"/>
<path d="M64.7009 45.0337L65.8371 47.2298L68.8116 45.4352L67.6334 43.1578C66.6595 43.7797 65.6808 44.4053 64.7009 45.0337Z" fill="#8CD3F6"/>
<path d="M68.4106 42.6617L69.5995 44.96L72.574 43.1653L71.3474 40.7939C70.3773 41.4094 69.3975 42.0323 68.4106 42.6617Z" fill="#8CD3F6"/>
<path d="M53.5955 52.1988L54.5484 54.0408L57.5229 52.2461L56.5188 50.3047C55.5331 50.9422 54.5576 51.5743 53.5955 52.1988Z" fill="#8CD3F6"/>
<path d="M38.8308 61.8343L39.4967 63.1215L42.4712 61.3269L41.745 59.9235C40.7104 60.6018 39.737 61.2398 38.8308 61.8343Z" fill="#8CD3F6"/>
<path d="M87.085 31.0397L88.4136 33.6084L91.388 31.8137L90.0809 29.287C89.1741 29.8057 88.1701 30.3931 87.085 31.0397Z" fill="#8CD3F6"/>
<path d="M93.4697 27.4434C92.7693 27.7917 91.8959 28.262 90.8806 28.8328L92.1765 31.338L94.6973 29.8169C94.6973 29.8169 93.9959 28.4603 93.4697 27.4434Z" fill="#8CD3F6"/>
<path d="M83.3232 33.3122L84.6508 35.8787L87.6252 34.0841L86.295 31.5122C85.356 32.075 84.3633 32.6764 83.3232 33.3122Z" fill="#8CD3F6"/>
<path d="M35.1465 64.2562L35.7339 65.3924L38.7084 63.5978L38.0586 62.3417C36.9648 63.0598 35.9866 63.7031 35.1465 64.2562Z" fill="#8CD3F6"/>
<path d="M31.7495 66.4958L32.2891 67.4703L34.9454 65.8675L34.3746 64.764C32.7057 65.8637 31.7495 66.4958 31.7495 66.4958Z" fill="#8CD3F6"/>
<path d="M79.5801 35.6201L80.8883 38.149L83.8627 36.3543L82.5378 33.7932C81.5854 34.3775 80.597 34.988 79.5801 35.6201Z" fill="#8CD3F6"/>
<path d="M85.1554 55.944L83.8789 53.4764L87.0624 52.0859L88.3647 54.6035C87.321 55.0416 86.2503 55.4887 85.1554 55.944Z" fill="#8CD3F6"/>
<path d="M81.0877 57.6247L79.8521 55.235L83.0356 53.8445L84.304 56.2971C83.249 56.734 82.1761 57.1769 81.0877 57.6247Z" fill="#8CD3F6"/>
<path d="M48.3753 70.7419L47.6335 69.3084L50.817 67.918L51.6168 69.4638C50.4935 69.9072 49.4105 70.334 48.3753 70.7419Z" fill="#8CD3F6"/>
<path d="M52.4757 69.1241L51.6609 67.5493L54.8444 66.1588L55.7151 67.8422C54.6079 68.2803 53.5249 68.7097 52.4757 69.1241Z" fill="#8CD3F6"/>
<path d="M64.7599 64.2389L63.7424 62.2717L66.9259 60.8813L67.9923 62.9425C66.9093 63.3773 65.8306 63.8105 64.7599 64.2389Z" fill="#8CD3F6"/>
<path d="M56.5735 67.5009L55.6882 65.7896L58.8717 64.3991L59.8107 66.2142C58.7132 66.6517 57.6323 67.0812 56.5735 67.5009Z" fill="#8CD3F6"/>
<path d="M68.8485 62.598L67.7698 60.5125L70.9533 59.1221L72.0777 61.2956C71.0011 61.731 69.9235 62.1653 68.8485 62.598Z" fill="#8CD3F6"/>
<path d="M72.9328 60.9495L71.7971 58.7534L74.9806 57.3629L76.1588 59.6407C75.0887 60.0761 74.0121 60.5125 72.9328 60.9495Z" fill="#8CD3F6"/>
<path d="M77.0129 59.2924L75.824 56.9942L79.0075 55.6037L80.234 57.9751C79.1714 58.411 78.0965 58.8506 77.0129 59.2924Z" fill="#8CD3F6"/>
<path d="M60.668 65.8729L59.7151 64.0309L62.8986 62.6404L63.9026 64.5818C62.8137 65.0172 61.7338 65.4483 60.668 65.8729Z" fill="#8CD3F6"/>
<path d="M44.2729 72.3544L43.6069 71.0672L46.7904 69.6767L47.5161 71.0801C46.3648 71.5332 45.2812 71.9589 44.2729 72.3544Z" fill="#8CD3F6"/>
<path d="M97.2889 50.7674L95.9602 48.1988L99.1437 46.8083L100.451 49.3351C99.5033 49.7758 98.4439 50.2552 97.2889 50.7674Z" fill="#8CD3F6"/>
<path d="M103.914 47.635C103.225 48.0053 102.336 48.4466 101.284 48.9448L99.9878 46.4396L102.686 45.2609C102.686 45.2609 103.387 46.6175 103.914 47.635Z" fill="#8CD3F6"/>
<path d="M93.2605 52.5245L91.9329 49.958L95.1164 48.5675L96.4467 51.1394C95.4453 51.5801 94.3806 52.0429 93.2605 52.5245Z" fill="#8CD3F6"/>
<path d="M40.1668 73.9626L39.5793 72.8264L42.7629 71.4359L43.4127 72.692C42.1937 73.1698 41.1036 73.5966 40.1668 73.9626Z" fill="#8CD3F6"/>
<path d="M36.376 75.4406L35.8928 74.4371L38.7356 73.1955L39.3064 74.299C37.4445 75.0257 36.376 75.4406 36.376 75.4406Z" fill="#8CD3F6"/>
<path d="M89.2138 54.2461L87.9055 51.7172L91.089 50.3267L92.4139 52.8878C91.3868 53.327 90.3172 53.7806 89.2138 54.2461Z" fill="#8CD3F6"/>
<path d="M1.58069 57.7096L0.320289 58.0719C0.0375732 58.153 -0.0881948 58.4825 0.0682128 58.7314L12.5497 78.6177L23.6256 71.5138L21.245 69.8713C15.5101 75.015 5.9386 69.7863 1.58069 57.7096Z" fill="white"/>
<path d="M26.2848 105.471L25.2609 106.29C25.0314 106.474 24.6896 106.386 24.5767 106.115L15.5588 84.4365L27.757 79.5018L27.7221 82.3935C20.2108 84.1027 18.9471 94.9357 26.2848 105.471Z" fill="white"/>
</svg>
