<svg width="22" height="22" viewBox="0 0 22 22" fill="none" xmlns="http://www.w3.org/2000/svg">
<g clip-path="url(#clip0_0_606)">
<path d="M12.3986 1.64984C12.2668 1.39244 12.0664 1.17642 11.8196 1.02558C11.5729 0.874738 11.2893 0.794922 11.0001 0.794922C10.7108 0.794922 10.4272 0.874738 10.1805 1.02558C9.93371 1.17642 9.73335 1.39244 9.60149 1.64984L0.95863 18.9356C0.838085 19.1747 0.780694 19.4408 0.791904 19.7085C0.803115 19.9762 0.882557 20.2364 1.02269 20.4647C1.16281 20.693 1.35898 20.8818 1.59255 21.0128C1.82611 21.144 2.08933 21.2133 2.35721 21.2141H19.6429C19.9108 21.2133 20.174 21.144 20.4075 21.0128C20.6412 20.8818 20.8373 20.693 20.9775 20.4647C21.1175 20.2364 21.197 19.9762 21.2082 19.7085C21.2195 19.4408 21.162 19.1747 21.0414 18.9356L12.3986 1.64984Z" stroke="#1A75E5" stroke-linecap="round" stroke-linejoin="round"/>
<path d="M11 7.85718V12.9643" stroke="#1A75E5" stroke-linecap="round" stroke-linejoin="round"/>
<path d="M11 17.2857C10.7831 17.2857 10.6072 17.1099 10.6072 16.8929C10.6072 16.6758 10.7831 16.5 11 16.5" stroke="#1A75E5" stroke-linecap="round" stroke-linejoin="round"/>
<path d="M11 17.2857C11.217 17.2857 11.3929 17.1099 11.3929 16.8929C11.3929 16.6758 11.217 16.5 11 16.5" stroke="#1A75E5" stroke-linecap="round" stroke-linejoin="round"/>
</g>
<defs>
<clipPath id="clip0_0_606">
<rect width="22" height="22" fill="white"/>
</clipPath>
</defs>
</svg>
