<svg width="24" height="24" viewBox="0 0 24 24" fill="none" xmlns="http://www.w3.org/2000/svg">
<path d="M10.5299 21.7639C9.61586 22.3536 8.52666 22.6106 7.44544 22.4916C6.36424 22.3726 5.35694 21.8851 4.59294 21.1109L3.92503 20.4578C3.63222 20.1583 3.46826 19.7561 3.46826 19.3371C3.46826 18.9183 3.63222 18.5162 3.92503 18.2165L6.75993 15.4114C7.05693 15.1195 7.45668 14.9559 7.8731 14.9559C8.28952 14.9559 8.68929 15.1195 8.98629 15.4114C9.28579 15.7042 9.68802 15.8681 10.1069 15.8681C10.5258 15.8681 10.928 15.7042 11.2275 15.4114L15.6802 10.9587C15.8287 10.8123 15.9467 10.6378 16.0272 10.4454C16.1077 10.2531 16.1492 10.0466 16.1492 9.83806C16.1492 9.62951 16.1077 9.42305 16.0272 9.23067C15.9467 9.03829 15.8287 8.86384 15.6802 8.71746C15.3883 8.42046 15.2248 8.02071 15.2248 7.60429C15.2248 7.18786 15.3883 6.7881 15.6802 6.4911L18.5002 3.67105C18.7997 3.37823 19.2019 3.21428 19.6209 3.21428C20.0397 3.21428 20.442 3.37823 20.7415 3.67105L21.3945 4.33895C22.1688 5.10296 22.6564 6.11026 22.7753 7.19147C22.8943 8.27269 22.6373 9.36188 22.0476 10.2759C18.9751 14.8039 15.0658 18.7032 10.5299 21.7639Z" stroke="#1A75E5" stroke-linecap="round" stroke-linejoin="round"/>
<path d="M11.8866 1.98339L6.29059 7.57937C5.62111 8.24883 4.53569 8.24883 3.86623 7.57937L1.39868 5.11181" stroke="#1A75E5" stroke-linecap="round" stroke-linejoin="round"/>
<path d="M7.92017 1.98339H11.887V5.95021" stroke="#1A75E5" stroke-linecap="round" stroke-linejoin="round"/>
</svg>
