<svg width="22" height="22" viewBox="0 0 22 22" fill="none" xmlns="http://www.w3.org/2000/svg">
<path d="M13.3572 0.785645H8.64296C7.77509 0.785645 7.07153 1.4892 7.07153 2.35707V3.14279C7.07153 4.01066 7.77509 4.71422 8.64296 4.71422H13.3572C14.2251 4.71422 14.9287 4.01066 14.9287 3.14279V2.35707C14.9287 1.4892 14.2251 0.785645 13.3572 0.785645Z" stroke="#1A75E5" stroke-linecap="round" stroke-linejoin="round"/>
<path d="M15.3214 2.35718H17.6786C18.0953 2.35718 18.4951 2.52274 18.7897 2.81743C19.0844 3.11214 19.25 3.51183 19.25 3.92861V19.6429C19.25 20.0596 19.0844 20.4594 18.7897 20.7541C18.4951 21.0487 18.0953 21.2143 17.6786 21.2143H4.32143C3.90465 21.2143 3.50496 21.0487 3.21026 20.7541C2.91557 20.4594 2.75 20.0596 2.75 19.6429V3.92861C2.75 3.51183 2.91557 3.11214 3.21026 2.81743C3.50496 2.52274 3.90465 2.35718 4.32143 2.35718H6.67857" stroke="#1A75E5" stroke-linecap="round" stroke-linejoin="round"/>
<path d="M7.85718 14.1428L10.2143 15.7142L14.9286 9.42847" stroke="#1A75E5" stroke-linecap="round" stroke-linejoin="round"/>
</svg>
