<svg width="331" height="430" viewBox="0 0 331 430" fill="none" xmlns="http://www.w3.org/2000/svg">
<path d="M68.1592 76.5639C67.514 77.4606 66.3251 77.913 65.1721 77.5169L48.6418 71.8362L47.3319 86.6291L51.4388 89.8948C51.9469 90.2989 52.2357 90.9178 52.2172 91.5677C52.2053 92.001 52.0632 92.3917 51.8331 92.7111C51.3355 93.4023 50.4268 93.759 49.5319 93.4762L45.6048 92.0951L45.4335 94.4916C45.4197 94.6841 45.3521 94.8613 45.2461 95.0078C45.0471 95.284 44.7131 95.4561 44.3504 95.4302C43.7945 95.39 43.3722 94.9023 43.4118 94.3472L43.5836 91.9563L39.7578 93.2514C38.4296 93.5909 37.1462 92.565 37.1848 91.1945C37.1966 90.7768 37.3346 90.3787 37.5715 90.0481C37.7033 89.8645 37.8661 89.7017 38.0556 89.5678L42.339 86.5385L41.1117 71.6248L24.289 76.3675C22.5858 76.8486 20.9057 75.5382 20.9549 73.7687C20.9702 73.2363 21.1455 72.7297 21.4473 72.3108C21.6577 72.018 21.9294 71.7675 22.25 71.5802L29.0777 67.5754L28.6479 66.5793C28.458 66.1388 28.5295 65.6484 28.7912 65.2836C28.9262 65.0962 29.1111 64.9414 29.3372 64.8448C30.0037 64.5569 30.7846 64.8682 31.0725 65.5347L31.3721 66.2294L34.1121 64.6218L33.569 63.362C33.379 62.9215 33.4506 62.4311 33.7122 62.0662C33.8473 61.8788 34.0328 61.7247 34.2582 61.6275C34.9248 61.3395 35.7062 61.6501 35.9935 62.3174L36.4073 63.2765L41.4303 60.3303L41.8185 46.5251C41.8185 46.5251 42.0422 42.0374 43.5513 39.9383C44 39.3146 44.5625 38.9014 45.2666 38.8804C49.2856 38.7605 49.3436 46.8919 49.3436 46.8919L48.9598 60.5439L53.1491 63.3295L54.163 61.6647C54.181 61.6354 54.1992 61.6075 54.2196 61.5802C54.6169 61.0271 55.3868 60.8638 55.9778 61.2237C56.598 61.6017 56.7967 62.4182 56.4188 63.0385L55.3509 64.7927L57.9777 66.5392L58.588 65.536C58.6061 65.5067 58.6243 65.4788 58.644 65.4522C59.0413 64.8992 59.8112 64.7359 60.4022 65.0958C61.0224 65.4737 61.2211 66.2903 60.8432 66.9105L60.1774 68.0032L67.4773 72.8564C68.2306 73.3578 68.6729 74.2113 68.6467 75.115C68.6319 75.6609 68.4514 76.158 68.1592 76.5639Z" fill="white"/>
<path d="M45.2671 38.8782C42.1939 38.9693 41.8183 46.5237 41.8183 46.5237L41.4301 60.3289L36.4072 63.275L35.9934 62.316C35.7054 61.6494 34.9254 61.3388 34.2581 61.6261C33.5908 61.9134 33.2809 62.694 33.5682 63.3613L34.1114 64.6212L31.3714 66.2287L31.0717 65.5341C30.7838 64.8675 30.0037 64.5569 29.3364 64.8442C28.6699 65.1321 28.3592 65.9121 28.6465 66.5794L29.0763 67.5755L22.2485 71.5803C21.4682 72.0382 20.9796 72.865 20.9535 73.7688C20.9035 75.5376 22.5842 76.8473 24.2876 76.3677L41.1117 71.6248L42.3405 86.5397L38.0571 89.5691C37.5268 89.9439 37.2042 90.5466 37.1856 91.1951C37.1469 92.5656 38.431 93.5907 39.7585 93.2521L43.5844 91.9569L43.4125 94.3478C43.3723 94.9037 43.7946 95.3914 44.3511 95.4309C44.907 95.4711 45.3947 95.0488 45.4342 94.4923L45.6056 92.0957L49.5327 93.4768C50.8399 93.89 52.1785 92.9382 52.2172 91.5678C52.235 90.9185 51.9469 90.2989 51.4388 89.8948L47.3327 86.6298L48.6418 71.8362L65.1721 77.5169C66.8455 78.0921 68.597 76.8789 68.647 75.11C68.6723 74.2056 68.2301 73.3521 67.4775 72.8514L60.1776 67.9982L60.8434 66.9056C61.2214 66.2853 61.0227 65.4687 60.4024 65.0908C59.7821 64.7128 58.9656 64.9115 58.5876 65.5318L57.9773 66.535L55.3505 64.7884L56.4184 63.0343C56.7963 62.414 56.5976 61.5975 55.9774 61.2195C55.3571 60.8415 54.5406 61.0402 54.1633 61.6612L53.1495 63.326L48.9602 60.5403L49.344 46.8883C49.344 46.8883 49.2861 38.7583 45.2671 38.8782Z" fill="white"/>
<path d="M43.8146 87.7139L43.4065 94.9285C43.3766 95.4564 43.7841 95.9135 44.3121 95.9433L44.4607 95.9517C44.9887 95.9815 45.4457 95.574 45.4756 95.046L45.8844 87.8307C45.9143 87.3027 45.5075 86.8463 44.9787 86.8158L44.8301 86.8075C44.3009 86.7791 43.8445 87.1859 43.8146 87.7139Z" fill="#BCBACE"/>
<path d="M41.1117 71.6248L41.1879 68.4411L27.7527 73.7356C27.7527 73.7356 27.477 75.468 27.7129 75.4019C27.9488 75.3357 41.1117 71.6248 41.1117 71.6248Z" fill="#BCBACE"/>
<path d="M48.6418 71.8362L48.7188 68.6218L60.1815 74.0236L60.1396 75.7875L48.6418 71.8362Z" fill="#BCBACE"/>
<path d="M54.8445 76.0041L54.0324 88.0598" stroke="#F4F6FF" stroke-miterlimit="10" stroke-linecap="round"/>
<path d="M51.6002 78.4541L51.374 84.6525" stroke="#F4F6FF" stroke-miterlimit="10" stroke-linecap="round"/>
<path d="M37.8563 75.3128L37.3335 83.0784" stroke="#F4F6FF" stroke-miterlimit="10" stroke-linecap="round"/>
<path d="M34.9542 75.7331L34.238 86.3593" stroke="#F4F6FF" stroke-miterlimit="10" stroke-linecap="round"/>
<path d="M45.9798 102.565C42.0858 114.872 47.2108 128.654 55.9476 138.156C64.6851 147.658 76.5304 153.639 88.3185 158.9" stroke="#F4F6FF" stroke-miterlimit="10" stroke-dasharray="5 5"/>
<path d="M95.27 377.241C96.4769 376.719 97.9682 376.983 98.9037 378.092L112.325 393.99L122.696 379.675L120.493 373.831C120.221 373.108 120.304 372.299 120.72 371.647C120.996 371.212 121.381 370.898 121.81 370.713C122.741 370.311 123.888 370.502 124.628 371.336L127.797 375.144L129.435 372.8C129.568 372.612 129.744 372.473 129.942 372.387C130.315 372.226 130.76 372.255 131.115 372.503C131.659 372.884 131.792 373.639 131.412 374.183L129.777 376.52L134.477 377.533C136.041 377.998 136.726 379.829 135.85 381.206C135.584 381.625 135.199 381.948 134.755 382.14C134.508 382.247 134.242 382.314 133.968 382.335L127.742 382.814L119.89 398.804L139.975 404.231C142.008 404.779 142.926 407.144 141.795 408.922C141.454 409.457 140.965 409.866 140.401 410.111C140.007 410.281 139.576 410.371 139.135 410.368L129.714 410.291L129.545 411.571C129.469 412.137 129.098 412.595 128.606 412.807C128.354 412.916 128.07 412.961 127.78 412.922C126.923 412.809 126.315 412.015 126.428 411.158L126.546 410.265L122.765 410.234L122.551 411.852C122.476 412.418 122.104 412.876 121.613 413.089C121.361 413.199 121.077 413.243 120.787 413.205C119.931 413.091 119.322 412.297 119.435 411.441L119.598 410.209L112.667 410.153L103.84 424.021C103.84 424.021 100.872 428.469 98.0473 429.692C97.208 430.056 96.3807 430.134 95.6476 429.725C91.4681 427.394 96.3737 419.051 96.3737 419.051L105.101 405.337L102.521 399.934L100.469 401.016C100.433 401.035 100.397 401.052 100.36 401.068C99.6158 401.39 98.7304 401.087 98.3458 400.359C97.9432 399.594 98.2386 398.639 99.0028 398.235L101.166 397.095L99.5487 393.706L98.3128 394.358C98.2767 394.377 98.2406 394.394 98.2036 394.41C97.4594 394.733 96.574 394.429 96.1894 393.701C95.7868 392.937 96.0823 391.981 96.8465 391.578L98.1936 390.868L93.6985 381.452C93.2348 380.48 93.3039 379.338 93.8828 378.43C94.2364 377.875 94.7241 377.478 95.27 377.241Z" fill="white"/>
<path d="M95.6486 429.724C98.8446 431.507 103.84 424.02 103.84 424.02L112.667 410.152L119.598 410.208L119.435 411.44C119.322 412.296 119.93 413.09 120.787 413.204C121.644 413.317 122.438 412.709 122.551 411.851L122.765 410.233L126.546 410.264L126.428 411.157C126.315 412.014 126.923 412.808 127.78 412.921C128.637 413.034 129.43 412.426 129.544 411.569L129.713 410.289L139.134 410.366C140.21 410.375 141.215 409.828 141.794 408.92C142.925 407.143 142.008 404.778 139.974 404.229L119.89 398.802L127.741 382.812L133.967 382.333C134.738 382.274 135.435 381.856 135.849 381.204C136.726 379.827 136.041 377.996 134.476 377.531L129.776 376.518L131.412 374.181C131.792 373.637 131.658 372.881 131.114 372.501C130.57 372.121 129.814 372.255 129.434 372.798L127.796 375.142L124.627 371.334C123.544 370.113 121.594 370.27 120.719 371.646C120.303 372.298 120.22 373.107 120.492 373.83L122.695 379.673L112.324 393.988L98.9027 378.09C97.5436 376.48 95.0136 376.65 93.8829 378.427C93.305 379.336 93.2349 380.477 93.6986 381.449L98.1936 390.865L96.8465 391.575C96.0823 391.977 95.7858 392.933 96.1895 393.698C96.5921 394.462 97.5476 394.759 98.3128 394.355L99.5487 393.703L101.166 397.092L99.0039 398.233C98.2387 398.636 97.9432 399.591 98.3469 400.357C98.7495 401.121 99.705 401.417 100.47 401.014L102.522 399.932L105.102 405.335L96.3748 419.049C96.3748 419.049 91.4691 427.393 95.6486 429.724Z" fill="white"/>
<path d="M126.953 380.715L131.776 373.593C132.129 373.071 131.991 372.357 131.471 372.003L131.324 371.904C130.804 371.551 130.088 371.689 129.735 372.211L124.911 379.333C124.559 379.853 124.696 380.569 125.217 380.922L125.363 381.021C125.884 381.374 126.599 381.236 126.953 380.715Z" fill="#BCBACE"/>
<path d="M119.89 398.804L117.868 402.01L134.828 404.804C134.828 404.804 136.167 403.203 135.886 403.127C135.605 403.05 119.89 398.804 119.89 398.804Z" fill="#BCBACE"/>
<path d="M112.325 393.99L110.283 397.227L101.87 384.708L102.99 382.932L112.325 393.99Z" fill="#BCBACE"/>
<path d="M142.15 384.998L133.173 400.304" stroke="#F4F6FF" stroke-miterlimit="10" stroke-linecap="round"/>
<path d="M134.99 385.387L129.197 395.491" stroke="#F4F6FF" stroke-miterlimit="10" stroke-linecap="round"/>
<path d="M119.017 366.891L108.06 383.729" stroke="#F4F6FF" stroke-miterlimit="10" stroke-linecap="round"/>
<path d="M113.827 365.054L104.889 379.606" stroke="#F4F6FF" stroke-miterlimit="10" stroke-linecap="round"/>
<path d="M135.546 363.514C142.366 359.157 150.732 357.991 158.82 357.735C166.909 357.478 175.074 358.018 183.046 356.631C191.02 355.244 199.039 351.586 203.478 344.819C207.917 338.051 207.501 327.812 201.088 322.875C196.733 319.523 190.221 319.307 185.653 322.364C184.168 323.357 182.849 324.718 182.312 326.423C180.897 330.921 185.405 335.169 189.87 336.686C201.416 340.609 215.483 333.949 219.765 322.531C223.499 312.572 220.345 300.854 224.854 291.221" stroke="#F4F6FF" stroke-miterlimit="10" stroke-dasharray="5 5"/>
<path d="M300.132 61.6854C298.541 61.8195 296.93 60.938 296.283 59.3016L287.008 35.8247L269.54 48.2675L269.81 55.8397C269.844 56.7768 269.433 57.6743 268.704 58.2639C268.217 58.6564 267.655 58.8684 267.088 58.916C265.861 59.0193 264.618 58.355 264.089 57.1083L261.92 51.502L259.127 53.562C258.903 53.7275 258.645 53.8194 258.385 53.8412C257.895 53.882 257.393 53.6766 257.08 53.2535C256.603 52.6056 256.741 51.6846 257.389 51.2067L260.174 49.1513L255.163 46.1674C253.545 45.0281 253.466 42.6562 255.006 41.4135C255.476 41.0346 256.041 40.8122 256.628 40.7629C256.953 40.7354 257.285 40.7618 257.609 40.8439L264.954 42.7038L280.173 27.3591L259.182 13.3416C257.056 11.923 256.917 8.84864 258.905 7.24295C259.505 6.75922 260.225 6.47803 260.969 6.41599C261.487 6.37268 262.017 6.43587 262.524 6.6107L273.326 10.3467L274.016 8.94013C274.322 8.31821 274.927 7.93651 275.573 7.88194C275.906 7.85387 276.249 7.91234 276.568 8.06939C277.509 8.53196 277.901 9.68 277.439 10.6213L276.957 11.6025L281.292 13.1023L282.165 11.3248C282.471 10.7029 283.076 10.3202 283.723 10.2666C284.055 10.2385 284.398 10.297 284.717 10.454C285.659 10.9166 286.051 12.0647 285.589 13.0059L284.924 14.359L292.871 17.1082L308.39 4.58055C308.39 4.58055 313.526 0.614397 317.247 0.301855C318.353 0.209126 319.334 0.438967 320.019 1.19247C323.922 5.49188 315.051 13.1841 315.051 13.1841L299.705 25.5719L300.578 32.7836L303.357 32.3343C303.406 32.3261 303.455 32.3208 303.503 32.3166C304.483 32.2349 305.384 32.9252 305.544 33.9125C305.711 34.9475 305.001 35.9316 303.966 36.0995L301.038 36.5729L301.585 41.0965L303.26 40.8254C303.308 40.8171 303.357 40.8118 303.405 40.8076C304.385 40.7249 305.287 41.4161 305.447 42.4035C305.614 43.4385 304.905 44.4225 303.869 44.5906L302.044 44.8859L303.567 57.4528C303.724 58.7491 303.202 60.0354 302.186 60.8562C301.566 61.3568 300.851 61.6255 300.132 61.6854Z" fill="white"/>
<path d="M320.02 1.19437C317.036 -2.09358 308.391 4.58145 308.391 4.58145L292.872 17.1091L284.925 14.3599L285.59 13.0068C286.053 12.0655 285.66 10.9175 284.718 10.4549C283.777 9.99238 282.629 10.3844 282.167 11.3257L281.293 13.1032L276.958 11.6034L277.44 10.6222C277.902 9.68092 277.511 8.53287 276.569 8.0703C275.628 7.60873 274.48 7.99974 274.017 8.94104L273.327 10.3476L262.525 6.6116C261.29 6.18476 259.924 6.42395 258.907 7.24386C256.918 8.84955 257.057 11.9229 259.183 13.3425L280.174 27.36L264.955 42.7047L257.611 40.8448C256.702 40.6147 255.737 40.8258 255.008 41.4143C253.468 42.657 253.547 45.0289 255.165 46.1682L260.176 49.1521L257.391 51.2075C256.743 51.6854 256.605 52.6064 257.083 53.2543C257.561 53.9022 258.482 54.0408 259.129 53.5629L261.922 51.5028L264.092 57.1091C264.864 58.9316 267.166 59.5084 268.706 58.2647C269.436 57.6761 269.846 56.7776 269.812 55.8405L269.543 48.2693L287.011 35.8265L296.285 59.3034C297.224 61.6804 300.199 62.4647 302.188 60.859C303.204 60.0392 303.726 58.7529 303.569 57.4556L302.047 44.8887L303.871 44.5934C304.906 44.4264 305.616 43.4423 305.449 42.4063C305.282 41.3713 304.298 40.6611 303.262 40.8282L301.588 41.0993L301.04 36.5767L303.969 36.1034C305.004 35.9364 305.714 34.9523 305.547 33.9173C305.379 32.8824 304.396 32.1721 303.36 32.3401L300.581 32.7894L299.708 25.5777L315.053 13.1899C315.051 13.1871 323.922 5.49387 320.02 1.19437Z" fill="white"/>
<path d="M265.049 45.4241L256.745 51.7446C256.137 52.207 256.019 53.083 256.481 53.69L256.611 53.8606C257.073 54.4677 257.949 54.5871 258.556 54.1248L266.86 47.8043C267.468 47.3419 267.586 46.4659 267.124 45.8589L266.994 45.6882C266.532 45.0802 265.657 44.9617 265.049 45.4241Z" fill="#BCBACE"/>
<path d="M280.174 27.3601L283.74 24.4572L265.322 14.6775C265.322 14.6775 263.161 16.0006 263.456 16.197C263.75 16.3925 280.174 27.3601 280.174 27.3601Z" fill="#BCBACE"/>
<path d="M287.008 35.8257L290.609 32.8937L295.434 50.5454L293.459 52.154L287.008 35.8257Z" fill="#BCBACE"/>
<path d="M256.936 34.8856L270.678 23.748" stroke="#F4F6FF" stroke-miterlimit="10" stroke-linecap="round"/>
<path d="M262.795 35.9253L269.67 29.9932" stroke="#F4F6FF" stroke-miterlimit="10" stroke-linecap="round"/>
<path d="M273.117 53.795L281.967 46.6214" stroke="#F4F6FF" stroke-miterlimit="10" stroke-linecap="round"/>
<path d="M276.458 56.4886L288.569 46.6731" stroke="#F4F6FF" stroke-miterlimit="10" stroke-linecap="round"/>
<path d="M247.209 64.6547C243.452 67.9332 241.516 72.7545 239.172 77.156C236.045 83.0297 231.991 88.4083 227.207 93.0324C223.944 96.1873 219.1 99.1326 215.149 96.9005C211.299 94.7248 211.577 88.2519 215.285 85.8433C218.994 83.4337 224.443 85.1004 226.854 88.8065C229.266 92.5125 228.913 97.5693 226.745 101.424C224.577 105.278 220.856 108.052 216.874 109.976C209.55 113.516 201.283 114.476 193.494 116.825C185.706 119.174 177.786 123.53 174.645 131.034" stroke="#F4F6FF" stroke-miterlimit="10" stroke-dasharray="5 5"/>
</svg>
