<svg width="24" height="24" viewBox="0 0 24 24" fill="none" xmlns="http://www.w3.org/2000/svg">
<g clip-path="url(#clip0_145_3478)">
<path d="M9.99409 1.71127C11.1882 0.739847 12.9002 0.739847 14.0944 1.71127L14.6648 2.17534L15.3909 2.05869C16.9108 1.81449 18.3935 2.67046 18.9419 4.10882L19.204 4.79597L19.8911 5.05798C21.3293 5.60643 22.1855 7.08905 21.9412 8.60892L21.8244 9.33502L22.2887 9.9055C23.26 11.0997 23.26 12.8116 22.2887 14.0058L21.8244 14.5763L21.9412 15.3023C22.1855 16.8222 21.3293 18.3048 19.8911 18.8534L19.204 19.1153L18.9419 19.8024C18.3935 21.2409 16.9108 22.0968 15.3909 21.8525L14.6648 21.7359L14.0944 22.2C12.9002 23.1715 11.1882 23.1715 9.99409 22.2L9.4236 21.7359L8.69751 21.8525C7.17764 22.0968 5.69502 21.2409 5.14657 19.8024L4.88454 19.1153L4.19741 18.8534C2.75905 18.3048 1.90308 16.8222 2.14728 15.3023L2.26393 14.5763L1.79986 14.0058C0.828433 12.8116 0.828433 11.0997 1.79986 9.9055L2.26393 9.33502L2.14728 8.60892C1.90308 7.08905 2.75905 5.60643 4.19741 5.05798L4.88454 4.79597L5.14657 4.10882C5.69502 2.67046 7.17764 1.81449 8.69751 2.05869L9.4236 2.17534L9.99409 1.71127Z" stroke="white" stroke-linecap="round" stroke-linejoin="round"/>
<path d="M7.7583 16.2413L16.3297 7.66992" stroke="white" stroke-linecap="round" stroke-linejoin="round"/>
<path d="M8.61544 9.38421C9.08883 9.38421 9.47259 9.00045 9.47259 8.52706C9.47259 8.05368 9.08883 7.66992 8.61544 7.66992C8.14206 7.66992 7.7583 8.05368 7.7583 8.52706C7.7583 9.00045 8.14206 9.38421 8.61544 9.38421Z" stroke="white" stroke-linecap="round" stroke-linejoin="round"/>
<path d="M15.4729 16.2413C15.9462 16.2413 16.33 15.8576 16.33 15.3842C16.33 14.9108 15.9462 14.5271 15.4729 14.5271C14.9995 14.5271 14.6157 14.9108 14.6157 15.3842C14.6157 15.8576 14.9995 16.2413 15.4729 16.2413Z" stroke="white" stroke-linecap="round" stroke-linejoin="round"/>
</g>
<defs>
<clipPath id="clip0_145_3478">
<rect width="24" height="24" fill="white"/>
</clipPath>
</defs>
</svg>
