<svg width="22" height="22" viewBox="0 0 22 22" fill="none" xmlns="http://www.w3.org/2000/svg">
<g clip-path="url(#clip0_0_939)">
<path d="M17.2857 8.64285H4.71425C3.84638 8.64285 3.14282 9.34641 3.14282 10.2143V19.6429C3.14282 20.5108 3.84638 21.2143 4.71425 21.2143H17.2857C18.1536 21.2143 18.8571 20.5108 18.8571 19.6429V10.2143C18.8571 9.34641 18.1536 8.64285 17.2857 8.64285Z" stroke="white" stroke-linecap="round" stroke-linejoin="round"/>
<path d="M16.5 8.64285V6.28571C16.5 4.82701 15.9206 3.42806 14.8891 2.39662C13.8576 1.36517 12.4587 0.785706 11 0.785706C9.54131 0.785706 8.14236 1.36517 7.11092 2.39662C6.07946 3.42806 5.5 4.82701 5.5 6.28571V8.64285" stroke="white" stroke-linecap="round" stroke-linejoin="round"/>
<path d="M11.0001 15.7143C11.434 15.7143 11.7858 15.3625 11.7858 14.9286C11.7858 14.4946 11.434 14.1429 11.0001 14.1429C10.5661 14.1429 10.2144 14.4946 10.2144 14.9286C10.2144 15.3625 10.5661 15.7143 11.0001 15.7143Z" stroke="white" stroke-linecap="round" stroke-linejoin="round"/>
</g>
<defs>
<clipPath id="clip0_0_939">
<rect width="22" height="22" fill="white"/>
</clipPath>
</defs>
</svg>
