<svg width="22" height="22" viewBox="0 0 22 22" fill="none" xmlns="http://www.w3.org/2000/svg">
<g clip-path="url(#clip0_0_947)">
<path d="M5.70278 5.69547C7.2628 4.68174 9.07044 3.92856 10.9998 3.92856C15.3841 3.92856 19.1398 7.81789 20.7898 9.8156C21.0504 10.1404 21.1946 10.5625 21.1946 11.0001C21.1946 11.4377 21.0504 11.8597 20.7898 12.1846C19.8803 13.2857 18.3309 14.9617 16.3892 16.2442M13.3569 17.7095C12.5989 17.9388 11.8101 18.0716 10.9998 18.0716C6.61551 18.0716 2.8598 14.1823 1.20979 12.1846C0.949187 11.8597 0.804932 11.4377 0.804932 11.0001C0.804932 10.5625 0.949187 10.1404 1.20979 9.8156C1.73256 9.18266 2.4667 8.35985 3.36525 7.53101" stroke="#828282" stroke-linecap="round" stroke-linejoin="round"/>
<path d="M13.2222 13.2224C14.4496 11.9951 14.4496 10.0051 13.2222 8.77775C11.9949 7.5504 10.005 7.5504 8.77759 8.77775" stroke="#828282" stroke-linecap="round" stroke-linejoin="round"/>
<path d="M21.2142 21.2143L0.785645 0.785706" stroke="#828282" stroke-linecap="round" stroke-linejoin="round"/>
</g>
<defs>
<clipPath id="clip0_0_947">
<rect width="22" height="22" fill="white"/>
</clipPath>
</defs>
</svg>
