<svg width="33" height="33" viewBox="0 0 33 33" fill="none" xmlns="http://www.w3.org/2000/svg">
<path d="M7.25548 15.0648L9.0037 14.1655C9.14612 14.0814 9.3158 14.0565 9.47639 14.096C9.63699 14.1354 9.77577 14.2362 9.86301 14.3767L11.5159 16.2577L18.3339 11.4822C18.8579 11.0689 19.465 10.7735 20.1137 10.6165C20.7624 10.4594 21.4374 10.4443 22.0925 10.5722C22.7475 10.7001 23.3673 10.968 23.9091 11.3575C24.4511 11.7471 24.9027 12.2491 25.2327 12.8292C25.3043 12.9792 25.3459 13.1418 25.3548 13.3078C25.3637 13.4738 25.3395 13.6399 25.2841 13.7967C25.229 13.9534 25.1433 14.0977 25.032 14.2213C24.9209 14.345 24.7865 14.4455 24.6365 14.5172L20.5066 16.4262L20.0498 16.6445L19.1129 21.7425C19.0999 21.8545 19.0589 21.9614 18.9936 22.0533C18.9283 22.1452 18.8409 22.2192 18.7394 22.2683L16.2247 23.6413C16.1176 23.6953 15.9983 23.7205 15.8785 23.7142C15.7588 23.708 15.6427 23.6706 15.5418 23.6057C15.4409 23.5409 15.3588 23.4508 15.3034 23.3444C15.248 23.238 15.2214 23.119 15.2262 22.9991L15.8394 18.8901L15.54 19.0286L11.0719 21.2537C10.78 21.4054 10.4399 21.4356 10.1258 21.3377C9.81169 21.2398 9.54898 21.0218 9.39491 20.7311L6.98087 15.877C6.91636 15.7319 6.90878 15.5678 6.95965 15.4173C7.01052 15.2668 7.11611 15.141 7.25548 15.0648Z" stroke="#1A75E5" stroke-linecap="round" stroke-linejoin="round"/>
<path d="M4.20069 32.4891V26.3396H10.3503" stroke="#1A75E5" stroke-linecap="round" stroke-linejoin="round"/>
<path d="M32.2174 13.5619C33.7475 21.6989 28.7679 29.7657 20.638 31.9442C14.4158 33.6114 8.06693 31.3687 4.2002 26.722" stroke="#1A75E5" stroke-linecap="round" stroke-linejoin="round"/>
<path d="M0.782421 19.4382C-0.747703 11.3012 4.23179 3.23424 12.3616 1.05586C18.5835 -0.611289 24.932 1.63103 28.7986 6.27702" stroke="#1A75E5" stroke-linecap="round" stroke-linejoin="round"/>
<path d="M28.7989 0.510993V6.66059H22.6492" stroke="#1A75E5" stroke-linecap="round" stroke-linejoin="round"/>
</svg>
