<svg width="22" height="22" viewBox="0 0 22 22" fill="none" xmlns="http://www.w3.org/2000/svg">
<g clip-path="url(#clip0_0_38)">
<path d="M19.2904 19.2256V10.0454H2.70947V19.2256C2.70947 20.0935 3.41303 20.797 4.2809 20.797H17.7189C18.5868 20.797 19.2904 20.0935 19.2904 19.2256Z" stroke="#1A75E5" stroke-linecap="round" stroke-linejoin="round"/>
<path d="M11 20.797V10.0425" stroke="#1A75E5" stroke-linecap="round" stroke-linejoin="round"/>
<path d="M20.6453 7.52992V8.47405C20.6453 9.34192 19.9418 10.0455 19.0739 10.0455H2.92616C2.05829 10.0455 1.35474 9.34192 1.35474 8.47405V7.52992C1.35474 6.66206 2.05829 5.9585 2.92616 5.9585H19.0739C19.9418 5.9585 20.6453 6.66206 20.6453 7.52992Z" stroke="#1A75E5" stroke-linecap="round" stroke-linejoin="round"/>
<path d="M11.0002 5.95834C11.0002 4.58334 9.396 1.375 6.98975 1.375C3.07515 1.375 4.50114 5.95834 6.37477 5.95834" stroke="#1A75E5" stroke-linecap="round" stroke-linejoin="round"/>
<path d="M11 5.95834C11 4.58334 12.6042 1.375 15.0104 1.375C18.925 1.375 17.499 5.95834 15.6254 5.95834" stroke="#1A75E5" stroke-linecap="round" stroke-linejoin="round"/>
</g>
<defs>
<clipPath id="clip0_0_38">
<rect width="22" height="22" fill="white"/>
</clipPath>
</defs>
</svg>
