<svg width="31" height="40" viewBox="0 0 31 40" fill="none" xmlns="http://www.w3.org/2000/svg">
<path d="M22.6901 36.0367C22.5101 36.0367 22.3268 35.9784 22.1734 35.8567C17.1484 31.8801 11.6618 27.2001 10.1618 21.9851C9.52676 19.7767 10.8068 17.4651 13.0151 16.8284C15.2234 16.1967 17.5368 17.4751 18.1718 19.6817C19.0584 22.7634 25.0784 27.5284 27.3451 29.3217C27.7068 29.6067 27.7668 30.1317 27.4818 30.4917C27.1968 30.8534 26.6751 30.9151 26.3118 30.6284C22.0068 27.2217 17.4818 23.3101 16.5701 20.1417C16.1884 18.8167 14.7984 18.0517 13.4751 18.4301C12.1518 18.8117 11.3834 20.2001 11.7634 21.5234C13.1268 26.2634 18.3851 30.7317 23.2068 34.5484C23.5684 34.8334 23.6284 35.3584 23.3434 35.7184C23.1801 35.9284 22.9368 36.0367 22.6901 36.0367Z" fill="white"/>
<path d="M1.50501 31.8184C1.15001 31.8184 0.820014 31.59 0.710014 31.2334C0.571681 30.7934 0.816681 30.3267 1.25668 30.1901C2.18835 29.8984 5.12168 28.58 3.75501 23.8284C2.95668 21.0467 3.28668 18.1201 4.68835 15.5901C6.09001 13.0567 8.39335 11.2217 11.1767 10.4217C16.7833 8.82506 22.7183 12.0084 24.485 17.5351C24.9 17.9251 27.745 20.2751 29.6917 21.8551C30.0484 22.1451 30.1033 22.6701 29.8134 23.0267C29.525 23.3851 28.9983 23.4401 28.6417 23.1484C23.2833 18.8001 23.105 18.4984 23.0184 18.3551C22.9834 18.2967 22.9567 18.2351 22.9367 18.1717C21.4917 13.4167 16.42 10.6601 11.635 12.0251C9.28168 12.7001 7.33168 14.2534 6.14501 16.3951C4.96001 18.5367 4.68001 21.0134 5.35501 23.3667C6.77501 28.3017 4.30168 30.9834 1.75168 31.7801C1.67168 31.805 1.58835 31.8184 1.50501 31.8184Z" fill="white"/>
<path d="M4.16664 35.0001C3.81164 35.0001 3.4833 34.7717 3.37164 34.4151C3.2333 33.9767 3.4783 33.5084 3.9183 33.3717C7.37164 32.2917 8.6283 30.5184 6.94497 22.8551C6.0333 18.6984 8.24664 14.7318 12.0933 13.6251C16.065 12.4884 20.2316 14.7901 21.3733 18.7601C21.605 19.5651 22.6633 21.1168 28.8483 26.0134C29.21 26.2984 29.27 26.8234 28.985 27.1851C28.7 27.5451 28.1783 27.6101 27.815 27.3217C20.9866 21.9184 20.0966 20.3568 19.7716 19.2234C18.8833 16.1368 15.65 14.3434 12.5516 15.2301C9.56164 16.0901 7.84997 19.2151 8.57164 22.5001C10.2866 30.3134 9.2383 33.4584 4.4133 34.9651C4.3333 34.9884 4.2483 35.0001 4.16664 35.0001Z" fill="white"/>
<path d="M25 33.3335C24.7867 33.3335 24.5733 33.2518 24.41 33.0901C24.105 32.7851 23.435 32.2768 22.66 31.6885C19.675 29.4235 14.6783 25.6335 13.365 21.0635C13.2383 20.6201 13.4933 20.1601 13.935 20.0318C14.3833 19.9051 14.8383 20.1601 14.9667 20.6018C16.1267 24.6385 20.8467 28.2185 23.6667 30.3585C24.525 31.0101 25.2033 31.5251 25.5883 31.9101C25.9133 32.2351 25.9133 32.7635 25.5883 33.0885C25.4267 33.2518 25.2133 33.3335 25 33.3335Z" fill="white"/>
<path d="M12.5 39.9999C12.4816 39.9999 12.465 39.9999 12.4466 39.9982C11.9883 39.9699 11.6383 39.5749 11.6666 39.1149C11.7283 38.1499 12.1733 33.3332 15 33.3332C17.0783 33.3332 18.33 35.0332 19.1583 36.1582C19.38 36.4582 19.5733 36.7282 19.755 36.9115C20.08 37.2365 20.08 37.7649 19.755 38.0899C19.43 38.4149 18.9016 38.4149 18.5766 38.0899C18.3466 37.8599 18.095 37.5265 17.815 37.1482C17.1116 36.1899 16.2366 34.9999 15 34.9999C14.0966 34.9999 13.4383 37.4949 13.3316 39.2182C13.3033 39.6599 12.9366 39.9999 12.5 39.9999Z" fill="white"/>
<path d="M7.49981 38.3332C7.14815 38.3332 6.82148 38.1099 6.70648 37.7565C6.56481 37.3182 6.80481 36.8499 7.24148 36.7065C9.34815 36.0215 10.7498 31.6482 10.0381 29.4199C9.89815 28.9816 10.1398 28.5132 10.5781 28.3732C11.0165 28.2265 11.4848 28.4749 11.6248 28.9132C12.5098 31.6815 10.9631 37.2515 7.75481 38.2932C7.67148 38.3199 7.58481 38.3332 7.49981 38.3332Z" fill="white"/>
<path d="M0.833333 21.6668C0.373333 21.6668 0 21.2935 0 20.8335C0 13.0218 6.355 6.66679 14.1667 6.66679C21.8567 6.66679 24.6083 11.1085 26.6167 14.3518C27.565 15.8801 28.3833 17.2018 29.425 17.5401C29.8633 17.6818 30.1033 18.1518 29.96 18.5901C29.82 19.0268 29.3517 19.2701 28.91 19.1251C27.2867 18.5985 26.32 17.0368 25.2 15.2285C23.2967 12.1568 20.9283 8.33346 14.1667 8.33346C7.27333 8.33346 1.66667 13.9401 1.66667 20.8335C1.66667 21.2935 1.29333 21.6668 0.833333 21.6668Z" fill="white"/>
<path d="M1.66667 27.4999C1.36 27.4999 1.06667 27.3315 0.92 27.0399C0.766667 26.7315 0 25.1465 0 24.1665C0 23.7065 0.373333 23.3332 0.833333 23.3332C1.29333 23.3332 1.66667 23.7065 1.66667 24.1665C1.66667 24.6015 2.11167 25.6932 2.41167 26.2932C2.61833 26.7049 2.45 27.2049 2.03833 27.4115C1.92 27.4715 1.79333 27.4999 1.66667 27.4999Z" fill="white"/>
<path d="M25.8332 9.99987C25.5515 9.99987 25.2765 9.8582 25.1198 9.5982C24.2982 8.24487 19.7398 4.99987 13.3332 4.99987C6.66984 4.99987 3.10317 8.40487 2.37817 9.5982C2.1415 9.9932 1.62817 10.1165 1.23483 9.87821C0.8415 9.63987 0.714834 9.12821 0.954834 8.73487C1.8665 7.23154 5.86817 3.33321 13.3332 3.33321C20.3532 3.33321 25.4015 6.84987 26.5448 8.73487C26.7848 9.12821 26.6582 9.63987 26.2648 9.87987C26.1298 9.96154 25.9815 9.99987 25.8332 9.99987Z" fill="white"/>
<path d="M22.4999 3.33333C22.4099 3.33333 22.3182 3.31833 22.2282 3.28833C21.8915 3.17333 21.5715 3.05333 21.2532 2.93667C19.4982 2.28333 17.8399 1.66667 13.3332 1.66667C9.33152 1.66667 8.42985 2.12833 7.18652 2.76667C6.87985 2.92333 6.55485 3.09 6.17318 3.26C5.75485 3.45 5.25985 3.26 5.07152 2.84167C4.88318 2.42167 5.07152 1.92833 5.48985 1.74C5.84152 1.58167 6.13985 1.42833 6.42318 1.28333C7.82318 0.566667 8.92818 0 13.3332 0C18.1399 0 20.0182 0.698333 21.8349 1.37333C22.1415 1.48667 22.4482 1.60167 22.7715 1.71333C23.2065 1.86333 23.4382 2.33667 23.2882 2.77167C23.1682 3.11667 22.8449 3.33333 22.4999 3.33333Z" fill="white"/>
<path d="M29.1666 14.9999C28.8132 14.9999 28.4866 14.7749 28.3732 14.4199C27.9916 13.2316 26.8032 11.2883 26.7899 11.2699C26.5482 10.8783 26.6716 10.3649 27.0632 10.1233C27.4549 9.87994 27.9682 10.0033 28.2099 10.3966C28.2632 10.4833 29.5182 12.5299 29.9599 13.9133C30.0999 14.3516 29.8582 14.8199 29.4199 14.9599C29.3349 14.9866 29.2499 14.9999 29.1666 14.9999Z" fill="white"/>
</svg>
