<svg width="22" height="22" viewBox="0 0 22 22" fill="none" xmlns="http://www.w3.org/2000/svg">
<path d="M1.27273 5.94001L3.4256 5.24858C3.57032 5.20345 3.72557 5.20496 3.8694 5.2529C4.01322 5.30085 4.13832 5.39279 4.22702 5.51572L5.70417 7.85715L13.8127 3.81858C14.4521 3.44364 15.1656 3.21281 15.9034 3.14222C16.6413 3.07163 17.3855 3.163 18.0845 3.40991C18.7833 3.65683 19.4199 4.05335 19.9495 4.5718C20.4792 5.09023 20.8894 5.71806 21.1513 6.41144C21.2594 6.76154 21.2241 7.14019 21.0533 7.46428C20.8823 7.78839 20.5898 8.03141 20.2399 8.14001L14.9127 9.86858L14.3785 10.0414L13.3727 13.4829C13.3422 13.6018 13.2812 13.7106 13.1958 13.7988C13.1103 13.887 13.0035 13.9514 12.8856 13.9857L10.4656 14.7714C10.3386 14.8263 10.199 14.8452 10.0619 14.8261C9.92493 14.8069 9.79582 14.7504 9.68874 14.6628C9.58168 14.5752 9.50075 14.4599 9.45485 14.3293C9.40894 14.1988 9.39981 14.0582 9.42845 13.9229L9.93131 11.4714L9.5856 11.5814L4.38417 13.2629C4.21609 13.3252 4.03729 13.3535 3.85818 13.3461C3.67907 13.3386 3.50322 13.2956 3.3409 13.2196C3.17857 13.1435 3.03297 13.036 2.91263 12.9031C2.79228 12.7702 2.69956 12.6148 2.63988 12.4457L0.817021 6.78858C0.767722 6.61566 0.787732 6.43031 0.872811 6.27189C0.95789 6.11348 1.10134 5.99443 1.27273 5.94001Z" stroke="white" stroke-linecap="round" stroke-linejoin="round"/>
<path d="M21.2142 21.2143H0.785645" stroke="white" stroke-linecap="round" stroke-linejoin="round"/>
</svg>
