<svg width="79" height="81" viewBox="0 0 79 81" fill="none" xmlns="http://www.w3.org/2000/svg">
<path d="M10.6272 2.4593L36.4038 32.2878L52.571 22.2501L14.7949 0.0972018C14.6075 -0.0128576 14.38 -0.0302722 14.1777 0.0491377L10.9031 1.3385C10.4496 1.51718 10.3082 2.09046 10.6272 2.4593Z" fill="#EAF1FF"/>
<path d="M10.9788 1.30891L10.9029 1.33886C10.4494 1.51754 10.308 2.09082 10.6267 2.45966L36.4032 32.2882L52.5705 22.2505L48.2433 19.7129C41.1017 26.4805 27.0245 21.1708 10.9788 1.30891Z" fill="white"/>
<path d="M50.9737 80.4618L41.5246 42.188L59.0589 34.7934L55.3099 78.4253C55.2915 78.6416 55.1744 78.8377 54.9926 78.9565L52.0478 80.8839C51.64 81.1511 51.0908 80.9351 50.9737 80.4618Z" fill="#EAF1FF"/>
<path d="M52.1161 80.8393L52.0478 80.8839C51.64 81.1511 51.0904 80.9351 50.9737 80.4618L41.5246 42.188L59.0589 34.7934L58.6295 39.7914C48.9791 41.7094 45.1778 56.2665 52.1161 80.8393Z" fill="white"/>
<path d="M7.92414 50.3693C27.4942 37.7337 54.8648 19.6676 61.754 16.5229C68.6431 13.3782 76.9223 14.5404 78.4036 17.4037C79.8849 20.2674 73.7362 28.892 68.6661 31.2353C63.5961 33.5786 15.3942 53.2058 10.4875 55.3251C5.58085 57.4448 2.26548 54.2736 7.92414 50.3693Z" fill="white"/>
<path d="M46.2896 36.9438C25.0895 46.3417 10.3674 53.3761 5.0671 53.5384C4.38445 55.6911 7.04085 56.8144 10.4879 55.3258C15.3946 53.2064 63.5961 33.5793 68.6664 31.236C73.7365 28.8927 79.8852 20.268 78.4039 17.4044C78.3148 17.2323 78.1998 17.0666 78.0636 16.9074C75.5849 22.6475 60.4016 30.6878 46.2896 36.9438Z" fill="#EDEDED"/>
<path d="M0.0441022 38.0583L8.13208 50.9446L15.3093 46.3413L2.06871 37.205C1.99801 37.1562 1.90955 37.1416 1.827 37.1656L0.207448 37.6313C0.0245959 37.6835 -0.05725 37.8967 0.0441022 38.0583Z" fill="#EAF1FF"/>
<path d="M15.9257 68.7624L10.0821 54.7149L17.9865 51.5172L17.7922 67.603C17.7911 67.6886 17.7518 67.7694 17.6849 67.8231L16.3687 68.876C16.2203 68.9951 15.9988 68.9383 15.9257 68.7624Z" fill="#EAF1FF"/>
<path d="M73.1875 26.0524C74.2139 24.7484 74.8886 23.4033 75.1745 22.139L73.0023 23.2626C73.1837 24.1218 73.2607 25.0525 73.1875 26.0524Z" fill="#8CD3F6"/>
<path d="M72.7714 22.3811L75.3247 21.0604C75.3578 20.3265 75.2387 19.6372 74.9618 19.0187L72.0069 20.5473C72.3047 21.1081 72.5673 21.7204 72.7714 22.3811Z" fill="#8CD3F6"/>
<path d="M68.0513 16.123C68.0513 16.123 68.8869 16.6577 69.8854 17.6771L72.0023 16.5821C70.9515 16.2362 69.6437 16.0645 68.0513 16.123Z" fill="#8CD3F6"/>
<path d="M70.5075 18.3569C70.8638 18.7745 71.2232 19.2486 71.559 19.7776L74.5086 18.2521C74.1496 17.7791 73.6699 17.3678 73.0625 17.0355L70.5075 18.3569Z" fill="#8CD3F6"/>
<path d="M49.1501 24.5923L49.9773 26.1913L51.9047 25.0284L51.0608 23.397C50.4381 23.785 49.8007 24.1838 49.1501 24.5923Z" fill="#8CD3F6"/>
<path d="M46.7379 26.1144L47.5386 27.6628L49.466 26.4999L48.6441 24.9107C48.0182 25.3046 47.3822 25.7062 46.7379 26.1144Z" fill="#8CD3F6"/>
<path d="M27.5517 38.5026L28.0323 39.4315L29.9598 38.2686L29.4415 37.2669C28.7864 37.695 28.1553 38.108 27.5517 38.5026Z" fill="#8CD3F6"/>
<path d="M29.9426 36.9399L30.4706 37.9604L32.398 36.7975L31.8338 35.707C31.187 36.1284 30.5549 36.5404 29.9426 36.9399Z" fill="#8CD3F6"/>
<path d="M37.1262 32.2725L37.7855 33.5472L39.713 32.3843L39.0219 31.0486C38.3867 31.4582 37.7538 31.8667 37.1262 32.2725Z" fill="#8CD3F6"/>
<path d="M32.3355 35.3806L32.9091 36.4895L34.8366 35.3266L34.2281 34.1504C33.5862 34.567 32.9541 34.978 32.3355 35.3806Z" fill="#8CD3F6"/>
<path d="M39.5249 30.7247L40.2239 32.076L42.1513 30.9131L41.4227 29.5046C40.7895 29.9111 40.1563 30.3182 39.5249 30.7247Z" fill="#8CD3F6"/>
<path d="M41.9263 29.1818L42.6625 30.6049L44.59 29.4419L43.8265 27.9662C43.1954 28.3692 42.5612 28.7746 41.9263 29.1818Z" fill="#8CD3F6"/>
<path d="M44.3302 27.6447L45.1006 29.134L47.0281 27.9711L46.2333 26.4344C45.6046 26.8332 44.9697 27.2369 44.3302 27.6447Z" fill="#8CD3F6"/>
<path d="M34.7299 33.8248L35.3474 35.0184L37.2748 33.8554L36.6242 32.5974C35.9855 33.0105 35.3533 33.4201 34.7299 33.8248Z" fill="#8CD3F6"/>
<path d="M25.1624 40.0686L25.5939 40.9027L27.5213 39.7398L27.0508 38.8304C26.3803 39.2699 25.7496 39.6834 25.1624 40.0686Z" fill="#8CD3F6"/>
<path d="M56.431 20.1137L57.292 21.7782L59.2194 20.6153L58.3724 18.978C57.7848 19.3141 57.1342 19.6947 56.431 20.1137Z" fill="#8CD3F6"/>
<path d="M60.5683 17.7833C60.1145 18.009 59.5485 18.3137 58.8906 18.6836L59.7304 20.307L61.3638 19.3213C61.3638 19.3213 60.9093 18.4423 60.5683 17.7833Z" fill="#8CD3F6"/>
<path d="M53.9934 21.5863L54.8536 23.2494L56.7811 22.0864L55.919 20.4199C55.3106 20.7845 54.6673 21.1743 53.9934 21.5863Z" fill="#8CD3F6"/>
<path d="M22.7749 41.638L23.1556 42.3743L25.083 41.2114L24.6619 40.3974C23.9531 40.8627 23.3193 41.2796 22.7749 41.638Z" fill="#8CD3F6"/>
<path d="M20.5737 43.0892L20.9234 43.7207L22.6446 42.6821L22.2747 41.9671C21.1933 42.6797 20.5737 43.0892 20.5737 43.0892Z" fill="#8CD3F6"/>
<path d="M51.5679 23.0818L52.4156 24.7205L54.343 23.5576L53.4845 21.898C52.8673 22.2766 52.2268 22.6722 51.5679 23.0818Z" fill="#8CD3F6"/>
<path d="M55.1807 36.2517L54.3535 34.6527L56.4164 33.7517L57.2603 35.3831C56.584 35.6669 55.8902 35.9567 55.1807 36.2517Z" fill="#8CD3F6"/>
<path d="M52.5448 37.3408L51.7441 35.7923L53.807 34.8912L54.6289 36.4805C53.9453 36.7636 53.2501 37.0506 52.5448 37.3408Z" fill="#8CD3F6"/>
<path d="M31.3473 45.8408L30.8667 44.9119L32.9296 44.0109L33.4479 45.0125C32.7199 45.2999 32.0181 45.5764 31.3473 45.8408Z" fill="#8CD3F6"/>
<path d="M34.0043 44.7925L33.4763 43.772L35.5392 42.871L36.1034 43.9618C35.3859 44.2457 34.6841 44.5239 34.0043 44.7925Z" fill="#8CD3F6"/>
<path d="M41.9646 41.6268L41.3052 40.3521L43.3682 39.4511L44.0592 40.7867C43.3574 41.0685 42.6584 41.3492 41.9646 41.6268Z" fill="#8CD3F6"/>
<path d="M36.6596 43.7407L36.086 42.6317L38.1489 41.7307L38.7573 42.9069C38.0461 43.1904 37.3457 43.4686 36.6596 43.7407Z" fill="#8CD3F6"/>
<path d="M44.614 40.5635L43.915 39.2121L45.9779 38.3111L46.7065 39.7196C46.0089 40.0017 45.3106 40.2831 44.614 40.5635Z" fill="#8CD3F6"/>
<path d="M47.2606 39.4953L46.5247 38.0722L48.5876 37.1712L49.351 38.6472C48.6576 38.9293 47.96 39.2122 47.2606 39.4953Z" fill="#8CD3F6"/>
<path d="M49.9044 38.4215L49.134 36.9322L51.1969 36.0312L51.9917 37.5679C51.3031 37.8503 50.6066 38.1352 49.9044 38.4215Z" fill="#8CD3F6"/>
<path d="M39.3129 42.6856L38.6954 41.492L40.7583 40.591L41.4089 41.849C40.7033 42.1312 40.0036 42.4105 39.3129 42.6856Z" fill="#8CD3F6"/>
<path d="M28.6888 46.8857L28.2572 46.0516L30.3201 45.1505L30.7903 46.0599C30.0443 46.3535 29.3422 46.6294 28.6888 46.8857Z" fill="#8CD3F6"/>
<path d="M63.0432 32.8974L62.1823 31.2329L64.2452 30.3319L65.0922 31.9692C64.4782 32.2548 63.7917 32.5654 63.0432 32.8974Z" fill="#8CD3F6"/>
<path d="M67.336 30.8675C66.8895 31.1075 66.3138 31.3934 65.6318 31.7163L64.7921 30.0929L66.5405 29.3291C66.5405 29.3291 66.995 30.2082 67.336 30.8675Z" fill="#8CD3F6"/>
<path d="M60.4328 34.0359L59.5725 32.3728L61.6355 31.4718L62.4975 33.1383C61.8486 33.4239 61.1587 33.7238 60.4328 34.0359Z" fill="#8CD3F6"/>
<path d="M26.0281 47.9278L25.6474 47.1915L27.7103 46.2905L28.1314 47.1044C27.3415 47.4141 26.6352 47.6906 26.0281 47.9278Z" fill="#8CD3F6"/>
<path d="M23.5717 48.8855L23.2586 48.2353L25.1007 47.4307L25.4706 48.1458C24.2641 48.6166 23.5717 48.8855 23.5717 48.8855Z" fill="#8CD3F6"/>
<path d="M57.8106 35.1515L56.9628 33.5128L59.0258 32.6117L59.8843 34.2713C59.2187 34.5559 58.5256 34.8499 57.8106 35.1515Z" fill="#8CD3F6"/>
<path d="M1.02425 37.3959L0.207512 37.6306C0.0243123 37.6832 -0.0571854 37.8967 0.0441668 38.058L8.13214 50.9443L15.3093 46.341L13.7668 45.2766C10.0505 48.6097 3.84818 45.2216 1.02425 37.3959Z" fill="white"/>
<path d="M17.0326 68.3452L16.3691 68.876C16.2203 68.9951 15.9988 68.9383 15.9257 68.7624L10.0821 54.7149L17.9865 51.5172L17.9639 53.391C13.0965 54.4986 12.2777 61.5183 17.0326 68.3452Z" fill="white"/>
</svg>
