<svg width="24" height="24" viewBox="0 0 24 24" fill="none" xmlns="http://www.w3.org/2000/svg">
<g clip-path="url(#clip0_145_3436)">
<path d="M2.57122 3.42859C2.11656 3.42859 1.68053 3.60921 1.35904 3.93069C1.03755 4.25218 0.856934 4.68821 0.856934 5.14287V21.4286C0.856934 21.8832 1.03755 22.3193 1.35904 22.6408C1.68053 22.9622 2.11656 23.1429 2.57122 23.1429H21.4284C21.883 23.1429 22.3191 22.9622 22.6405 22.6408C22.962 22.3193 23.1426 21.8832 23.1426 21.4286V5.14287C23.1426 4.68821 22.962 4.25218 22.6405 3.93069C22.3191 3.60921 21.883 3.42859 21.4284 3.42859H17.9998" stroke="white" stroke-linecap="round" stroke-linejoin="round"/>
<path d="M0.856934 9.42859H23.1426" stroke="white" stroke-linecap="round" stroke-linejoin="round"/>
<path d="M6 0.857147V6" stroke="white" stroke-linecap="round" stroke-linejoin="round"/>
<path d="M18 0.857147V6" stroke="white" stroke-linecap="round" stroke-linejoin="round"/>
<path d="M6 3.42859H14.5714" stroke="white" stroke-linecap="round" stroke-linejoin="round"/>
</g>
<defs>
<clipPath id="clip0_145_3436">
<rect width="24" height="24" fill="white"/>
</clipPath>
</defs>
</svg>
